<?xml version="1.0" encoding="utf-8"?>
<!-- Generator: Adobe Illustrator 27.5.0, SVG Export Plug-In . SVG Version: 6.00 Build 0)  -->
<svg version="1.1" id="Capa_1" xmlns="http://www.w3.org/2000/svg" xmlns:xlink="http://www.w3.org/1999/xlink" x="0px" y="0px"
	 viewBox="0 0 2122 2122" style="enable-background:new 0 0 2122 2122;" xml:space="preserve">
<rect x="0.027" y="0.004" style="fill:#FFFFFF;" width="2121.324" height="2121.316"/>
<path style="fill:#FFFFFF;" d="M654.563,746.918h465.961c0,0,3.023-34.996-34.152-26.664c0,0,2.488-58.324-47.332-19.996
	c0,0-31.5-26.379-49.828,16.809c0,0-37.742-21.805-63.023,13.188c0,0-5.297-51.09-66.949-43.043c0,0,1.668-55.273-73.324-38.609
	c0,0-79.445-41.461-101.375,47.59C684.539,696.191,617.613,710.258,654.563,746.918z"/>
<path style="fill:#9CDAE7;" d="M1228.211,482.066h621.875c0,0,4.031-46.707-45.578-35.586c0,0,3.313-77.84-63.176-26.688
	c0,0-42.031-35.203-66.5,22.43c0,0-50.363-29.102-84.109,17.602c0,0-7.07-68.184-89.352-57.445c0,0,2.227-73.762-97.855-51.527
	c0,0-106.027-55.328-135.293,63.52C1268.223,414.371,1178.902,433.137,1228.211,482.066z"/>
<path style="fill:#9CDAE7;" d="M122.695,516.461h687.523c0,0-13.32-69.633-182.859-48.441c0,0-32.441-96.879-119.156-51.465
	c0,0-148.156-124.137-253.676,43.895C254.527,460.449,138.758,416.555,122.695,516.461z"/>
<g>
	<g>
		<g>
			<g>
				<g>
					<g>
						<polygon style="fill:#77471C;" points="1922.551,1274.133 1873.996,1274.133 1873.996,1075.172 1893.25,1045.875 
							1903.023,1045.875 1922.551,1075.172 						"/>
						<polygon style="fill:#9E6735;" points="1929.246,1274.133 1880.695,1274.133 1880.695,1075.172 1899.953,1045.875 
							1909.719,1045.875 1929.246,1075.172 						"/>
						<path style="fill:#66B2BF;" d="M1921.238,1079.355c0,2.223-1.797,4.023-4.023,4.023c-2.211,0-4.008-1.801-4.008-4.023
							c0-2.211,1.797-4.016,4.008-4.016C1919.441,1075.34,1921.238,1077.145,1921.238,1079.355z"/>
						<path style="fill:#66B2BF;" d="M1900.645,1079.355c0,2.223-1.801,4.023-4.016,4.023c-2.227,0-4.023-1.801-4.023-4.023
							c0-2.211,1.797-4.016,4.023-4.016C1898.844,1075.34,1900.645,1077.145,1900.645,1079.355z"/>
					</g>
					<g>
						<rect x="1806.75" y="1130.426" style="fill:#5F3413;" width="70.875" height="29.578"/>
						<rect x="1806.75" y="1125.68" style="fill:#865428;" width="70.875" height="29.582"/>
					</g>
					<g>
						<rect x="1806.75" y="1199.066" style="fill:#5F3413;" width="70.875" height="29.578"/>
						<rect x="1806.75" y="1194.328" style="fill:#865428;" width="70.875" height="29.574"/>
					</g>
					<g>
						<polygon style="fill:#77471C;" points="1819.309,1274.133 1770.746,1274.133 1770.746,1075.176 1790,1045.875 
							1799.77,1045.875 1819.309,1075.176 						"/>
						<polygon style="fill:#9E6735;" points="1825.996,1274.133 1777.449,1274.133 1777.449,1075.176 1796.703,1045.875 
							1806.469,1045.875 1825.996,1075.176 						"/>
						<path style="fill:#66B2BF;" d="M1817.996,1079.355c0,2.223-1.805,4.023-4.02,4.023c-2.219,0-4.02-1.801-4.02-4.023
							c0-2.211,1.801-4.016,4.02-4.016C1816.191,1075.34,1817.996,1077.145,1817.996,1079.355z"/>
						<path style="fill:#66B2BF;" d="M1797.395,1079.355c0,2.223-1.793,4.023-4.012,4.023c-2.223,0-4.016-1.801-4.016-4.023
							c0-2.211,1.793-4.016,4.016-4.016C1795.602,1075.34,1797.395,1077.145,1797.395,1079.355z"/>
					</g>
					<g>
						<rect x="1703.5" y="1130.426" style="fill:#5F3413;" width="70.879" height="29.582"/>
						<rect x="1703.5" y="1125.68" style="fill:#865428;" width="70.879" height="29.582"/>
					</g>
					<g>
						<rect x="1703.5" y="1199.066" style="fill:#5F3413;" width="70.879" height="29.578"/>
						<rect x="1703.5" y="1194.328" style="fill:#865428;" width="70.879" height="29.578"/>
					</g>
				</g>
				<g>
					<g>
						<polygon style="fill:#77471C;" points="1716.055,1274.133 1667.504,1274.133 1667.504,1075.176 1686.754,1045.875 
							1696.523,1045.875 1716.055,1075.176 						"/>
						<polygon style="fill:#9E6735;" points="1722.754,1274.133 1674.199,1274.133 1674.199,1075.176 1693.453,1045.875 
							1703.219,1045.875 1722.754,1075.176 						"/>
						<path style="fill:#66B2BF;" d="M1714.746,1079.355c0,2.223-1.797,4.023-4.016,4.023c-2.223,0-4.02-1.801-4.02-4.023
							c0-2.211,1.797-4.016,4.02-4.016C1712.949,1075.34,1714.746,1077.145,1714.746,1079.355z"/>
						<path style="fill:#66B2BF;" d="M1694.156,1079.355c0,2.223-1.805,4.023-4.023,4.023s-4.016-1.801-4.016-4.023
							c0-2.211,1.797-4.016,4.016-4.016S1694.156,1077.145,1694.156,1079.355z"/>
					</g>
					<g>
						<rect x="1600.254" y="1130.426" style="fill:#5F3413;" width="70.875" height="29.582"/>
						<rect x="1600.254" y="1125.68" style="fill:#865428;" width="70.875" height="29.582"/>
					</g>
					<g>
						<rect x="1600.254" y="1199.066" style="fill:#5F3413;" width="70.875" height="29.578"/>
						<rect x="1600.254" y="1194.328" style="fill:#865428;" width="70.875" height="29.578"/>
					</g>
					<g>
						<polygon style="fill:#77471C;" points="1612.813,1274.133 1564.258,1274.133 1564.258,1075.176 1583.516,1045.875 
							1593.273,1045.875 1612.813,1075.176 						"/>
						<polygon style="fill:#9E6735;" points="1619.512,1274.133 1570.953,1274.133 1570.953,1075.176 1590.211,1045.875 
							1599.977,1045.875 1619.512,1075.176 						"/>
						<path style="fill:#66B2BF;" d="M1611.496,1079.359c0,2.219-1.793,4.02-4.016,4.02c-2.215,0-4.016-1.801-4.016-4.02
							c0-2.215,1.801-4.02,4.016-4.02C1609.703,1075.34,1611.496,1077.145,1611.496,1079.359z"/>
						<path style="fill:#66B2BF;" d="M1590.906,1079.359c0,2.219-1.801,4.02-4.02,4.02c-2.215,0-4.02-1.801-4.02-4.02
							c0-2.215,1.805-4.02,4.02-4.02C1589.105,1075.34,1590.906,1077.145,1590.906,1079.359z"/>
					</g>
					<g>
						<rect x="1497.012" y="1130.426" style="fill:#5F3413;" width="70.867" height="29.582"/>
						<rect x="1497.012" y="1125.68" style="fill:#865428;" width="70.867" height="29.582"/>
					</g>
					<g>
						<rect x="1497.012" y="1199.066" style="fill:#5F3413;" width="70.867" height="29.578"/>
						<rect x="1497.012" y="1194.328" style="fill:#865428;" width="70.867" height="29.578"/>
					</g>
				</g>
			</g>
			<g>
				<g>
					<g>
						<polygon style="fill:#77471C;" points="1509.563,1274.133 1461.016,1274.133 1461.016,1075.172 1480.262,1045.875 
							1490.035,1045.875 1509.563,1075.172 						"/>
						<polygon style="fill:#9E6735;" points="1516.266,1274.133 1467.711,1274.133 1467.711,1075.172 1486.965,1045.875 
							1496.73,1045.875 1516.266,1075.172 						"/>
						<path style="fill:#66B2BF;" d="M1508.25,1079.355c0,2.223-1.793,4.02-4.02,4.02c-2.211,0-4.012-1.797-4.012-4.02
							c0-2.219,1.801-4.016,4.012-4.016C1506.457,1075.34,1508.25,1077.137,1508.25,1079.355z"/>
						<path style="fill:#66B2BF;" d="M1487.656,1079.355c0,2.223-1.797,4.02-4.016,4.02s-4.02-1.797-4.02-4.02
							c0-2.219,1.801-4.016,4.02-4.016S1487.656,1077.137,1487.656,1079.355z"/>
					</g>
					<g>
						<rect x="1393.762" y="1130.426" style="fill:#5F3413;" width="70.879" height="29.578"/>
						<rect x="1393.762" y="1125.68" style="fill:#865428;" width="70.879" height="29.582"/>
					</g>
					<g>
						<rect x="1393.762" y="1199.066" style="fill:#5F3413;" width="70.879" height="29.578"/>
						<rect x="1393.762" y="1194.328" style="fill:#865428;" width="70.879" height="29.574"/>
					</g>
					<g>
						<polygon style="fill:#77471C;" points="1406.316,1274.133 1357.766,1274.133 1357.766,1075.172 1377.02,1045.875 
							1386.785,1045.875 1406.316,1075.172 						"/>
						<polygon style="fill:#9E6735;" points="1413.016,1274.133 1364.461,1274.133 1364.461,1075.172 1383.715,1045.875 
							1393.48,1045.875 1413.016,1075.172 						"/>
						<path style="fill:#66B2BF;" d="M1405.008,1079.355c0,2.223-1.805,4.023-4.016,4.023c-2.223,0-4.02-1.801-4.02-4.023
							c0-2.211,1.797-4.016,4.02-4.016C1403.203,1075.34,1405.008,1077.145,1405.008,1079.355z"/>
						<path style="fill:#66B2BF;" d="M1384.418,1079.355c0,2.223-1.805,4.023-4.027,4.023c-2.215,0-4.012-1.801-4.012-4.023
							c0-2.211,1.797-4.016,4.012-4.016C1382.613,1075.34,1384.418,1077.145,1384.418,1079.355z"/>
					</g>
					<g>
						<rect x="1290.523" y="1130.426" style="fill:#5F3413;" width="70.867" height="29.578"/>
						<rect x="1290.523" y="1125.68" style="fill:#865428;" width="70.867" height="29.582"/>
					</g>
					<g>
						<rect x="1290.523" y="1199.066" style="fill:#5F3413;" width="70.867" height="29.578"/>
						<rect x="1290.523" y="1194.328" style="fill:#865428;" width="70.867" height="29.574"/>
					</g>
				</g>
				<g>
					<g>
						<polygon style="fill:#77471C;" points="1303.074,1274.133 1254.516,1274.133 1254.516,1075.172 1273.77,1045.875 
							1283.535,1045.875 1303.074,1075.172 						"/>
						<polygon style="fill:#9E6735;" points="1309.766,1274.133 1261.223,1274.133 1261.223,1075.172 1280.465,1045.875 
							1290.234,1045.875 1309.766,1075.172 						"/>
						<path style="fill:#66B2BF;" d="M1301.758,1079.355c0,2.223-1.793,4.023-4.016,4.023c-2.211,0-4.016-1.801-4.016-4.023
							c0-2.211,1.805-4.016,4.016-4.016C1299.965,1075.34,1301.758,1077.145,1301.758,1079.355z"/>
						<path style="fill:#66B2BF;" d="M1281.168,1079.355c0,2.223-1.793,4.023-4.02,4.023c-2.219,0-4.02-1.801-4.02-4.023
							c0-2.211,1.801-4.016,4.02-4.016C1279.375,1075.34,1281.168,1077.145,1281.168,1079.355z"/>
					</g>
					<g>
						<rect x="1187.266" y="1130.426" style="fill:#5F3413;" width="70.887" height="29.578"/>
						<rect x="1187.266" y="1125.68" style="fill:#865428;" width="70.887" height="29.582"/>
					</g>
					<g>
						<rect x="1187.266" y="1199.066" style="fill:#5F3413;" width="70.887" height="29.578"/>
						<rect x="1187.266" y="1194.328" style="fill:#865428;" width="70.887" height="29.574"/>
					</g>
					<g>
						<polygon style="fill:#77471C;" points="1199.828,1274.133 1151.277,1274.133 1151.277,1075.176 1170.523,1045.875 
							1180.297,1045.875 1199.828,1075.176 						"/>
						<polygon style="fill:#9E6735;" points="1206.527,1274.133 1157.961,1274.133 1157.961,1075.176 1177.227,1045.875 
							1186.988,1045.875 1206.527,1075.176 						"/>
						<path style="fill:#66B2BF;" d="M1198.516,1079.355c0,2.223-1.797,4.023-4.023,4.023c-2.215,0-4.016-1.801-4.016-4.023
							c0-2.211,1.801-4.016,4.016-4.016C1196.719,1075.34,1198.516,1077.145,1198.516,1079.355z"/>
						<path style="fill:#66B2BF;" d="M1177.918,1079.355c0,2.223-1.793,4.023-4.016,4.023s-4.016-1.801-4.016-4.023
							c0-2.211,1.793-4.016,4.016-4.016S1177.918,1077.145,1177.918,1079.355z"/>
					</g>
					<g>
						<rect x="1084.027" y="1130.426" style="fill:#5F3413;" width="70.875" height="29.582"/>
						<rect x="1084.027" y="1125.68" style="fill:#865428;" width="70.875" height="29.582"/>
					</g>
					<g>
						<rect x="1084.027" y="1199.066" style="fill:#5F3413;" width="70.875" height="29.578"/>
						<rect x="1084.027" y="1194.328" style="fill:#865428;" width="70.875" height="29.578"/>
					</g>
				</g>
			</g>
		</g>
		<g>
			<g>
				<g>
					<g>
						<polygon style="fill:#77471C;" points="1096.457,1274.133 1047.902,1274.133 1047.902,1075.172 1067.156,1045.875 
							1076.926,1045.875 1096.457,1075.172 						"/>
						<polygon style="fill:#9E6735;" points="1103.152,1274.133 1054.605,1274.133 1054.605,1075.172 1073.859,1045.875 
							1083.625,1045.875 1103.152,1075.172 						"/>
						<path style="fill:#66B2BF;" d="M1095.152,1079.355c0,2.223-1.805,4.023-4.027,4.023c-2.211,0-4.012-1.801-4.012-4.023
							c0-2.211,1.801-4.016,4.012-4.016C1093.348,1075.34,1095.152,1077.145,1095.152,1079.355z"/>
						<path style="fill:#66B2BF;" d="M1074.551,1079.355c0,2.223-1.801,4.023-4.016,4.023c-2.219,0-4.023-1.801-4.023-4.023
							c0-2.211,1.805-4.016,4.023-4.016C1072.75,1075.34,1074.551,1077.145,1074.551,1079.355z"/>
					</g>
					<g>
						<rect x="980.652" y="1130.426" style="fill:#5F3413;" width="70.883" height="29.578"/>
						<rect x="980.652" y="1125.68" style="fill:#865428;" width="70.883" height="29.582"/>
					</g>
					<g>
						<rect x="980.652" y="1199.066" style="fill:#5F3413;" width="70.883" height="29.578"/>
						<rect x="980.652" y="1194.328" style="fill:#865428;" width="70.883" height="29.574"/>
					</g>
					<g>
						<polygon style="fill:#77471C;" points="993.211,1274.133 944.66,1274.133 944.66,1075.176 963.906,1045.875 973.676,1045.875 
							993.211,1075.176 						"/>
						<polygon style="fill:#9E6735;" points="999.91,1274.133 951.355,1274.133 951.355,1075.176 970.605,1045.875 
							980.375,1045.875 999.91,1075.176 						"/>
						<path style="fill:#66B2BF;" d="M991.902,1079.355c0,2.223-1.805,4.023-4.012,4.023c-2.227,0-4.027-1.801-4.027-4.023
							c0-2.211,1.801-4.016,4.027-4.016C990.098,1075.34,991.902,1077.145,991.902,1079.355z"/>
						<path style="fill:#66B2BF;" d="M971.305,1079.355c0,2.223-1.797,4.023-4.02,4.023c-2.219,0-4.012-1.801-4.012-4.023
							c0-2.211,1.793-4.016,4.012-4.016C969.508,1075.34,971.305,1077.145,971.305,1079.355z"/>
					</g>
					<g>
						<rect x="877.406" y="1130.426" style="fill:#5F3413;" width="70.879" height="29.582"/>
						<rect x="877.406" y="1125.68" style="fill:#865428;" width="70.879" height="29.582"/>
					</g>
					<g>
						<rect x="877.406" y="1199.066" style="fill:#5F3413;" width="70.879" height="29.578"/>
						<rect x="877.406" y="1194.328" style="fill:#865428;" width="70.879" height="29.578"/>
					</g>
				</g>
				<g>
					<g>
						<polygon style="fill:#77471C;" points="889.977,1274.133 841.41,1274.133 841.41,1075.176 860.68,1045.875 870.441,1045.875 
							889.977,1075.176 						"/>
						<polygon style="fill:#9E6735;" points="896.664,1274.133 848.109,1274.133 848.109,1075.176 867.359,1045.875 
							877.129,1045.875 896.664,1075.176 						"/>
						<path style="fill:#66B2BF;" d="M888.652,1079.355c0,2.223-1.793,4.023-4.016,4.023c-2.223,0-4.012-1.801-4.012-4.023
							c0-2.211,1.789-4.016,4.012-4.016C886.859,1075.34,888.652,1077.145,888.652,1079.355z"/>
						<path style="fill:#66B2BF;" d="M868.063,1079.355c0,2.223-1.805,4.023-4.019,4.023c-2.219,0-4.02-1.801-4.02-4.023
							c0-2.211,1.801-4.016,4.02-4.016C866.258,1075.34,868.063,1077.145,868.063,1079.355z"/>
					</g>
					<g>
						<rect x="774.168" y="1130.426" style="fill:#5F3413;" width="70.867" height="29.582"/>
						<rect x="774.168" y="1125.68" style="fill:#865428;" width="70.867" height="29.582"/>
					</g>
					<g>
						<rect x="774.168" y="1199.066" style="fill:#5F3413;" width="70.867" height="29.578"/>
						<rect x="774.168" y="1194.328" style="fill:#865428;" width="70.867" height="29.578"/>
					</g>
					<g>
						<polygon style="fill:#77471C;" points="786.719,1274.133 738.168,1274.133 738.168,1075.176 757.418,1045.875 
							767.191,1045.875 786.719,1075.176 						"/>
						<polygon style="fill:#9E6735;" points="793.422,1274.133 744.867,1274.133 744.867,1075.176 764.117,1045.875 
							773.883,1045.875 793.422,1075.176 						"/>
						<path style="fill:#66B2BF;" d="M785.406,1079.359c0,2.219-1.793,4.02-4.02,4.02c-2.211,0-4.016-1.801-4.016-4.02
							c0-2.215,1.805-4.02,4.016-4.02C783.613,1075.34,785.406,1077.145,785.406,1079.359z"/>
						<path style="fill:#66B2BF;" d="M764.809,1079.359c0,2.219-1.801,4.02-4.012,4.02c-2.223,0-4.02-1.801-4.02-4.02
							c0-2.215,1.797-4.02,4.02-4.02C763.008,1075.34,764.809,1077.145,764.809,1079.359z"/>
					</g>
					<g>
						<rect x="670.914" y="1130.426" style="fill:#5F3413;" width="70.879" height="29.582"/>
						<rect x="670.914" y="1125.68" style="fill:#865428;" width="70.879" height="29.582"/>
					</g>
					<g>
						<rect x="670.914" y="1199.066" style="fill:#5F3413;" width="70.879" height="29.578"/>
						<rect x="670.914" y="1194.328" style="fill:#865428;" width="70.879" height="29.578"/>
					</g>
				</g>
			</g>
			<g>
				<g>
					<g>
						<polygon style="fill:#77471C;" points="683.473,1274.133 634.926,1274.133 634.926,1075.172 654.176,1045.875 
							663.938,1045.875 683.473,1075.172 						"/>
						<polygon style="fill:#9E6735;" points="690.172,1274.133 641.617,1274.133 641.617,1075.172 660.867,1045.875 
							670.633,1045.875 690.172,1075.172 						"/>
						<path style="fill:#66B2BF;" d="M682.168,1079.355c0,2.223-1.809,4.02-4.027,4.02c-2.219,0-4.012-1.797-4.012-4.02
							c0-2.219,1.793-4.016,4.012-4.016C680.359,1075.34,682.168,1077.137,682.168,1079.355z"/>
						<path style="fill:#66B2BF;" d="M661.574,1079.355c0,2.223-1.809,4.02-4.027,4.02c-2.219,0-4.012-1.797-4.012-4.02
							c0-2.219,1.793-4.016,4.012-4.016C659.766,1075.34,661.574,1077.137,661.574,1079.355z"/>
					</g>
					<g>
						<rect x="567.668" y="1130.426" style="fill:#5F3413;" width="70.879" height="29.578"/>
						<rect x="567.668" y="1125.68" style="fill:#865428;" width="70.879" height="29.582"/>
					</g>
					<g>
						<rect x="567.668" y="1199.066" style="fill:#5F3413;" width="70.879" height="29.578"/>
						<rect x="567.668" y="1194.328" style="fill:#865428;" width="70.879" height="29.574"/>
					</g>
					<g>
						<polygon style="fill:#77471C;" points="580.227,1274.133 531.672,1274.133 531.672,1075.172 550.93,1045.875 
							560.699,1045.875 580.227,1075.172 						"/>
						<polygon style="fill:#9E6735;" points="586.922,1274.133 538.375,1274.133 538.375,1075.172 557.621,1045.875 
							567.391,1045.875 586.922,1075.172 						"/>
						<path style="fill:#66B2BF;" d="M578.914,1079.355c0,2.223-1.793,4.023-4.02,4.023c-2.207,0-4.008-1.801-4.008-4.023
							c0-2.211,1.801-4.016,4.008-4.016C577.121,1075.34,578.914,1077.145,578.914,1079.355z"/>
						<path style="fill:#66B2BF;" d="M558.324,1079.355c0,2.223-1.793,4.023-4.019,4.023c-2.219,0-4.023-1.801-4.023-4.023
							c0-2.211,1.805-4.016,4.023-4.016C556.531,1075.34,558.324,1077.145,558.324,1079.355z"/>
					</g>
					<g>
						<rect x="464.418" y="1130.426" style="fill:#5F3413;" width="70.887" height="29.578"/>
						<rect x="464.418" y="1125.68" style="fill:#865428;" width="70.887" height="29.582"/>
					</g>
					<g>
						<rect x="464.418" y="1199.066" style="fill:#5F3413;" width="70.887" height="29.578"/>
						<rect x="464.418" y="1194.328" style="fill:#865428;" width="70.887" height="29.574"/>
					</g>
				</g>
				<g>
					<g>
						<polygon style="fill:#77471C;" points="476.977,1274.133 428.422,1274.133 428.422,1075.172 447.684,1045.875 
							457.449,1045.875 476.977,1075.172 						"/>
						<polygon style="fill:#9E6735;" points="483.68,1274.133 435.121,1274.133 435.121,1075.172 454.383,1045.875 
							464.145,1045.875 483.68,1075.172 						"/>
						<path style="fill:#66B2BF;" d="M475.672,1079.355c0,2.223-1.797,4.023-4.023,4.023c-2.219,0-4.012-1.801-4.012-4.023
							c0-2.211,1.793-4.016,4.012-4.016C473.875,1075.34,475.672,1077.145,475.672,1079.355z"/>
						<path style="fill:#66B2BF;" d="M455.078,1079.355c0,2.223-1.809,4.023-4.02,4.023c-2.223,0-4.016-1.801-4.016-4.023
							c0-2.211,1.793-4.016,4.016-4.016C453.27,1075.34,455.078,1077.145,455.078,1079.355z"/>
					</g>
					<g>
						<rect x="361.184" y="1130.426" style="fill:#5F3413;" width="70.867" height="29.578"/>
						<rect x="361.184" y="1125.68" style="fill:#865428;" width="70.867" height="29.582"/>
					</g>
					<g>
						<rect x="361.184" y="1199.066" style="fill:#5F3413;" width="70.867" height="29.578"/>
						<rect x="361.184" y="1194.328" style="fill:#865428;" width="70.867" height="29.574"/>
					</g>
					<g>
						<polygon style="fill:#77471C;" points="373.734,1274.133 325.184,1274.133 325.184,1075.176 344.438,1045.875 
							354.199,1045.875 373.734,1075.176 						"/>
						<polygon style="fill:#9E6735;" points="380.434,1274.133 331.879,1274.133 331.879,1075.176 351.129,1045.875 
							360.906,1045.875 380.434,1075.176 						"/>
						<path style="fill:#66B2BF;" d="M372.422,1079.355c0,2.223-1.793,4.023-4.012,4.023c-2.219,0-4.027-1.801-4.027-4.023
							c0-2.211,1.809-4.016,4.027-4.016C370.629,1075.34,372.422,1077.145,372.422,1079.355z"/>
						<path style="fill:#66B2BF;" d="M351.832,1079.355c0,2.223-1.805,4.023-4.02,4.023c-2.215,0-4.02-1.801-4.02-4.023
							c0-2.211,1.805-4.016,4.02-4.016C350.027,1075.34,351.832,1077.145,351.832,1079.355z"/>
					</g>
					<g>
						<rect x="257.93" y="1130.426" style="fill:#5F3413;" width="70.879" height="29.582"/>
						<rect x="257.93" y="1125.68" style="fill:#865428;" width="70.879" height="29.582"/>
					</g>
					<g>
						<rect x="257.93" y="1199.066" style="fill:#5F3413;" width="70.879" height="29.578"/>
						<rect x="257.93" y="1194.328" style="fill:#865428;" width="70.879" height="29.578"/>
					</g>
					<g>
						<polygon style="fill:#77471C;" points="270.488,1274.133 221.934,1274.133 221.934,1075.176 241.188,1045.875 
							250.965,1045.875 270.488,1075.176 						"/>
						<polygon style="fill:#9E6735;" points="277.191,1274.133 228.637,1274.133 228.637,1075.176 247.891,1045.875 
							257.656,1045.875 277.191,1075.176 						"/>
						<path style="fill:#66B2BF;" d="M269.18,1079.355c0,2.223-1.801,4.023-4.023,4.023c-2.211,0-4.016-1.801-4.016-4.023
							c0-2.211,1.805-4.016,4.016-4.016C267.379,1075.34,269.18,1077.145,269.18,1079.355z"/>
						<path style="fill:#66B2BF;" d="M248.582,1079.355c0,2.223-1.797,4.023-4.023,4.023c-2.215,0-4.008-1.801-4.008-4.023
							c0-2.211,1.793-4.016,4.008-4.016C246.785,1075.34,248.582,1077.145,248.582,1079.355z"/>
					</g>
				</g>
			</g>
		</g>
	</g>
	<path style="fill:#66A94E;" d="M146.359,1265.41c104.16,407.867,474.023,709.457,914.344,709.457
		c440.313,0,810.18-301.59,914.336-709.457H146.359z"/>
	<path style="fill:#66A94E;" d="M146.359,1265.41c104.16,407.867,474.023,709.457,914.344,709.457
		c440.313,0,810.18-301.59,914.336-709.457H146.359z"/>
	<g>
		<path style="fill:#5B9C43;" d="M207.535,1434.82c22.453,47.375,48.738,92.578,78.445,135.219
			c482.273-27.621,1522.422-88.723,1491.723-100.195C1745.426,1457.77,652.48,1442.355,207.535,1434.82z"/>
		<path style="fill:#5B9C43;" d="M156.602,1302.297c12.512,41.805,27.883,82.375,45.813,121.516
			c414.965-12.965,1425.828-39.27,1736.734-47.305c3.68-9.352,7.168-18.789,10.559-28.289L156.602,1302.297z"/>
	</g>
	<path style="fill:#5B9C43;" d="M348.469,1650.184c15.672,18.02,32.016,35.426,48.992,52.207l1140.656,46.66H448.168
		c2.398,2.051,4.836,4.047,7.25,6.07l1143.09,51.57c88.836-61.73,166.555-138.328,229.566-226.203L348.469,1650.184z"/>
	<path style="fill:#5B9C43;" d="M1470.746,1881.305c21.813-10.539,43.168-21.879,64.008-34.004l-1001.879-33.816
		c43.918,29.695,90.453,55.805,139.211,77.871L1470.746,1881.305z"/>
</g>
<path style="fill:#47823D;" d="M1667.504,1588.859c0,39.883-270.438,72.211-604.051,72.211s-604.055-32.328-604.055-72.211
	c0-39.871,270.441-72.203,604.055-72.203S1667.504,1548.988,1667.504,1588.859z"/>
<g>
	<g>
		<path style="fill:#95B3C1;" d="M995.082,1341.285c0,3.547,30.664,6.426,68.508,6.426c37.824,0,68.5-2.879,68.5-6.426
			l19.664-183.227H975.402L995.082,1341.285z"/>
		<path style="opacity:0.2;fill:#446774;" d="M1132.09,1341.285c0,3.547-30.676,6.426-68.5,6.426
			c-37.844,0-68.508-2.879-68.508-6.426l-19.68-183.227h31.067c3.769,173.707,99.867,170.113,127.531,165.465L1132.09,1341.285z"/>
		<path style="opacity:0.2;fill:#446774;" d="M990.781,1158.059c2.051,37.602,10.563,142.324,43.035,189.008
			c-22.926-1.031-38.734-3.234-38.734-5.781l-19.68-183.227H990.781z"/>
		<path style="fill:#648998;" d="M975.402,1158.059c0,7.609,39.488,13.777,88.188,13.777c48.688,0,88.164-6.168,88.164-13.777
			c0-7.605-39.477-13.781-88.164-13.781C1014.891,1144.277,975.402,1150.453,975.402,1158.059z"/>
		<path style="fill:#5A8288;" d="M978.84,1158.059c0,6.246,37.942,11.313,84.75,11.313c46.789,0,84.734-5.066,84.734-11.313
			c0-6.254-37.945-11.324-84.734-11.324C1016.781,1146.734,978.84,1151.805,978.84,1158.059z"/>
		<path style="opacity:0.6;fill:#446774;" d="M1136.992,1163.719c-14.66,3.383-42.047,5.652-73.402,5.652
			c-31.363,0-58.758-2.269-73.402-5.652c14.644-3.379,42.039-5.66,73.402-5.66
			C1094.945,1158.059,1122.332,1160.34,1136.992,1163.719z"/>
	</g>
	<g>
		<path style="fill:#446774;" d="M1061.656,1039.121c47.234,0,85.656,38.43,85.656,85.672v29.074
			c-1.348-0.82-2.875-1.383-4.492-1.57v-27.504c0-44.754-36.422-81.164-81.164-81.164c-44.766,0-81.18,36.41-81.18,81.164v56.352
			h-4.496v-56.352C975.98,1077.551,1014.406,1039.121,1061.656,1039.121z"/>
	</g>
	<path style="fill:#DCE1E3;" d="M967.727,1189c0,8.344,7.082,15.105,12.473,15.105c5.398,0,9.773-6.762,9.773-15.105
		c0-8.336-4.375-15.098-9.773-15.098C974.809,1173.902,967.727,1180.664,967.727,1189z"/>
	<g>
		<path style="fill:#446774;" d="M1089.887,1043.91c33.406,11.703,57.426,43.531,57.426,80.883v29.074
			c-1.348-0.82-2.875-1.383-4.492-1.57v-27.504c0-35.246-22.59-65.305-54.047-76.504
			C1089.371,1046.953,1089.676,1045.512,1089.887,1043.91z"/>
		<path style="fill:#AF645A;" d="M1029.359,1050.336c-0.848-1.238-1.457-2.652-1.762-4.148c-3.434,1.492-6.75,3.207-9.934,5.121
			c-0.012-1.879,0.293-3.984,1.207-6.07c2.652-5.949,6.793-10.754,6.793-10.754s2.316-0.199,2.855,2.344
			c0,0,5.914-17.547,13.422-28.051l-0.297-8.93l23.629-3.879c0,0,16.914,45.539,14.473,62.625c0,0-0.41,6.535-5.02,12.777
			c0,0-0.359,1.539-6.871-1.438c0,0-3.793-0.168-6.781,2.09c-2.984,2.246-6.785,1.008-9.773,0c0,0-11.379,3.871-14.93,0.07
			c0,0-5.984,2.176-10.707-0.543c0,0-4.086-7.855-6.793-13.824c0,0-0.238-0.582-0.516-1.551
			C1021.844,1053.965,1025.527,1052.004,1029.359,1050.336z"/>
	</g>
	<path style="fill:#AF645A;" d="M1080.641,856.316c0,0-8.527,107.93-15.113,148.188c0,0-4.344,18.922-23.586,4.273
		c0,0-9.98-127.773-4.699-151.269C1042.266,835.117,1076.578,848.035,1080.641,856.316z"/>
	<g>
		<path style="fill:#AF645A;" d="M986.871,757.152c0,0,45.781,116.902,61.918,125.695c14.773,8.043,36.977-6.481,31.551-30.949
			c-7.973-35.98-47.859-134.465-47.859-134.465L986.871,757.152z"/>
		<path style="fill:#BBB48C;" d="M989.113,637.555c0,0,18.57,0.395,28.305,19.266c6.414,12.449,32.316,100.676,44.07,126.41
			c0,0-19.074,29.438-52.699,28.719c0,0-31.992-47.809-48.75-77.227C960.039,734.723,955.219,668.816,989.113,637.555z"/>
		<path style="fill:#CCC19E;" d="M1058.609,776.512c0,0-15.219,23.707-53.398,29.047c0,0-5.719,2.91,2.438,12.59
			c0,0,7.77,8.137,9.586,20.77c1.102,7.691,47.832-4.336,58.758-26.723c0,0,3.234-7.621-0.992-10.02
			c-5.477-3.109-11.641-12.676-10.789-20.09C1064.211,782.086,1062.352,776.945,1058.609,776.512z"/>
		<g>
			<path style="fill:#C37568;" d="M792.898,747.535c0,0-47.313,116.891-59.539,125.336c-13.836,9.559-36.84-7.266-30.887-31.609
				c8.746-35.805,50.727-133.418,50.727-133.418L792.898,747.535z"/>
			<path style="fill:#901924;" d="M985.664,987.012l1.078,490.52c0,0-5.586,7.313-60.582-38.254l-19.262-396.34L985.664,987.012z"/>
			<path style="opacity:0.7;fill:#6F0D1D;" d="M924.16,1398.223l-17.262-355.285l34.82-33.25
				c5.766,66.648,2.543,293.734,1.16,317.383c-1.512,26.039,26.746,30.105,38.48,30.105c1.078,0,4.203-1.191,5.113-1.816
				l0.289,47.172L924.16,1398.223z"/>
			<path style="fill:none;stroke:#901924;stroke-width:3.7975;stroke-miterlimit:10;" d="M914.852,1037.418
				c0,0,22.441,333.598,28.027,342.547"/>
			<path style="fill:#8B5435;" d="M917.805,1400.484c0,0,18.086,82.996,11.684,107.176c-6.742,25.473,2.34,51.07,7.457,60.563
				c0,0,17.481,11.996,55.688,0c0,0,12.727-5.516,37.402,0c0,0,50.156,11.203,78.805,0c0,0,7.27-36.035-19.105-47.941
				c-18.926-8.547-69.258-18.363-81.988-33.707c-12.727-15.355-19.203-81.406-19.203-81.406L917.805,1400.484z"/>
			<path style="fill:#723D23;" d="M966.797,1403.727l21.746,1.441c0,0,1.047,10.766,3.144,24.621
				c-11.012,8.113-33.723,20.008-66.027,12.746c-2.484-15.473-5.223-29.383-6.723-36.672L966.797,1403.727z"/>
			<path style="fill:#743F25;" d="M992.633,1568.223c-38.207,11.996-55.688,0-55.688,0c-3.094-5.746-7.633-17.391-9.25-31.32
				c9.731,15.469,43.695,10.188,47.438,10.852c4.606,0.813,18.414-1.914,31.977-4.215c13.566-2.309,56.457,14.527,92.523,9.914
				c5.504-0.707,7.68-5.215,8.43-10.391c3.293,12.695,0.777,25.16,0.777,25.16c-28.648,11.203-78.805,0-78.805,0
				C1005.359,1562.707,992.633,1568.223,992.633,1568.223z"/>
			<path style="fill:#D47D5A;" d="M989.492,1413.609c2.23,18.32,8.332,61.008,18.254,72.965c6.41,7.719,22.305,14.031,38.934,19.488
				c11.422,6.324,22.699,13.027,23.75,15.379c2.172,4.891-60.398-7.41-71.609-15.73c-11.207-8.32-36.891-80.652-36.891-80.652
				L989.492,1413.609z"/>
			<path style="fill:#532815;" d="M968.078,1420.723c0,0,23.145,69.555,30.742,78.086c7.598,8.527,54.43,19.922,59.844,18.297
				c5.434-1.629-43.746-16.449-52.066-28.301c-11.754-16.723-19.149-71.609-19.149-71.609L968.078,1420.723z"/>
			<path style="fill:#AB6849;" d="M978.453,1373.727c0,0,15.203-0.105,14.098,8.738c-1.109,8.836,0.227,27.895,2.207,34.949
				c1.973,7.051-29.898,20.227-79.504,5.016c0,0-9.395-7.387-5.75-20.375c0,0-11.109-25.195,2.637-28.871
				C923.836,1370.043,954.504,1371.992,978.453,1373.727z"/>
			<path style="fill:#AB6849;" d="M1109.746,1556.313c0,0,4.758,3.168,4.758,5.652c0,2.477,0,14.156,0,14.156
				s-32.551,13.441-95.52,0c0,0-16.988-4.25-27.949-0.352c-10.977,3.887-46.695,3.887-57.891-2.207c0,0-3.93-5.984-3.637-17.559
				l1.32-4.816c0,0,32.945,7.008,57.715,2.41c0,0,19.469-4.824,31.148-1.535C1030.488,1555.105,1065.371,1565.855,1109.746,1556.313
				z"/>
			<path style="fill:#89D4E5;" d="M958.633,1442.199c0.527,2.934,2.438,5.043,4.258,4.719c1.813-0.332,2.867-2.973,2.344-5.906
				c-0.543-2.934-2.441-5.043-4.262-4.711C959.152,1436.621,958.109,1439.266,958.633,1442.199z"/>
			<path style="fill:#172F34;" d="M959.93,1441.965c0.316,1.785,1.473,3.07,2.582,2.867c1.106-0.191,1.746-1.805,1.43-3.586
				c-0.332-1.789-1.488-3.074-2.594-2.875C960.246,1438.574,959.605,1440.184,959.93,1441.965z"/>
			<path style="fill:#89D4E5;" d="M964.781,1462.484c0.527,2.926,2.438,5.039,4.258,4.711c1.824-0.324,2.855-2.973,2.332-5.906
				c-0.523-2.922-2.441-5.039-4.25-4.715C965.305,1456.91,964.25,1459.555,964.781,1462.484z"/>
			<path style="fill:#172F34;" d="M966.07,1462.25c0.32,1.781,1.481,3.074,2.59,2.859c1.109-0.191,1.754-1.805,1.43-3.586
				c-0.328-1.785-1.488-3.07-2.598-2.871C966.387,1458.859,965.746,1460.461,966.07,1462.25z"/>
			<path style="fill:#89D4E5;" d="M972.363,1479.297c0.527,2.934,2.438,5.035,4.262,4.715c1.82-0.332,2.859-2.977,2.328-5.906
				c-0.523-2.93-2.43-5.035-4.246-4.715C972.879,1473.723,971.836,1476.371,972.363,1479.297z"/>
			<path style="fill:#172F34;" d="M973.656,1479.059c0.324,1.785,1.484,3.074,2.598,2.879c1.106-0.207,1.731-1.813,1.418-3.598
				c-0.32-1.781-1.488-3.074-2.59-2.867C973.973,1475.668,973.332,1477.273,973.656,1479.059z"/>
			<path style="fill:#89D4E5;" d="M981.359,1497.539c0.715,2.891,2.75,4.879,4.547,4.441c1.785-0.441,2.672-3.148,1.969-6.043
				c-0.723-2.891-2.758-4.879-4.551-4.434C981.527,1491.945,980.652,1494.645,981.359,1497.539z"/>
			<path style="fill:#172F34;" d="M982.633,1497.227c0.441,1.754,1.676,2.973,2.77,2.703c1.09-0.27,1.625-1.914,1.188-3.672
				c-0.43-1.766-1.664-2.98-2.77-2.711C982.73,1493.82,982.195,1495.465,982.633,1497.227z"/>
			<path style="fill:#89D4E5;" d="M998.644,1516.246c2.609,1.453,5.457,1.324,6.359-0.289c0.898-1.609-0.481-4.098-3.082-5.559
				c-2.594-1.449-5.43-1.32-6.336,0.293C994.688,1512.301,996.063,1514.793,998.644,1516.246z"/>
			<path style="fill:#172F34;" d="M999.293,1515.105c1.586,0.887,3.313,0.809,3.863-0.176c0.551-0.984-0.285-2.504-1.875-3.387
				c-1.578-0.887-3.309-0.809-3.856,0.172C996.871,1512.711,997.715,1514.219,999.293,1515.105z"/>
			<path style="fill:#89D4E5;" d="M1022.902,1525.25c2.879,0.766,5.602-0.07,6.066-1.852c0.477-1.793-1.461-3.859-4.355-4.617
				c-2.879-0.766-5.594,0.066-6.063,1.852C1018.07,1522.418,1020.023,1524.488,1022.902,1525.25z"/>
			<path style="fill:#172F34;" d="M1023.234,1523.977c1.754,0.473,3.41-0.039,3.695-1.125c0.293-1.086-0.895-2.344-2.648-2.816
				c-1.754-0.457-3.41,0.051-3.707,1.137C1020.301,1522.254,1021.484,1523.52,1023.234,1523.977z"/>
			<path style="fill:#89D4E5;" d="M1048.633,1529.313c2.875,0.766,5.598-0.074,6.07-1.852c0.465-1.793-1.48-3.859-4.359-4.629
				c-2.883-0.758-5.602,0.078-6.07,1.852C1043.801,1526.488,1045.746,1528.543,1048.633,1529.313z"/>
			<path style="fill:#172F34;" d="M1048.973,1528.047c1.746,0.469,3.41-0.039,3.691-1.121c0.297-1.102-0.906-2.359-2.66-2.82
				c-1.746-0.465-3.402,0.039-3.691,1.125C1046.02,1526.32,1047.211,1527.582,1048.973,1528.047z"/>
			
				<path style="fill:none;stroke:#855739;stroke-width:2.7125;stroke-linecap:round;stroke-linejoin:round;stroke-miterlimit:10;" d="
				M993.754,1436.262c-7.051,3.063-31.105,5.34-31.105,5.34s11.965,7.871,32.652,1.719"/>
			
				<path style="fill:none;stroke:#855739;stroke-width:2.7125;stroke-linecap:round;stroke-linejoin:round;stroke-miterlimit:10;" d="
				M995.301,1446.945c-4.426,7.781-27.223,14.938-27.223,14.938s18.395-1.383,29.176-10.965"/>
			
				<path style="fill:none;stroke:#855739;stroke-width:2.7125;stroke-linecap:round;stroke-linejoin:round;stroke-miterlimit:10;" d="
				M997.254,1452.723c0,0-8.941,20.848-21.59,25.98c0,0,20.621-1.352,26.773-5.348"/>
			
				<path style="fill:none;stroke:#855739;stroke-width:2.7125;stroke-linecap:round;stroke-linejoin:round;stroke-miterlimit:10;" d="
				M1003.32,1476.598c-2.539,7.957-18.707,20.141-18.707,20.141s16.41-2.441,22.539-10.93"/>
			
				<path style="fill:none;stroke:#855739;stroke-width:2.7125;stroke-linecap:round;stroke-linejoin:round;stroke-miterlimit:10;" d="
				M1008.941,1486.668c0,0-1.578,19.805-8.652,26.656c0,0,19.738-10.332,21.711-18.098c0,0,3.379,19.91,1.766,25.672
				c0,0,17.363-11.141,16.641-18.859c0,0,8.027,15.645,9.082,23.492c0,0,5.25-10.414,3.426-17.469"/>
			<path style="fill:#901924;" d="M825.234,902.199c0,0-24.605,57.734-11.746,134.227c0,0,55.605-22.164,85.98,17.977
				c0,0,10.609,3.184,24.891-16.348c14.273-19.531,61.293-42.871,61.293-42.871l0.102-109.336L825.234,902.199z"/>
			<path style="opacity:0.7;fill:#6F0D1D;" d="M817.168,924.609L817.168,924.609c20.082-49.613,23.555,4.391,26.707,8.316
				c0,0-9.398,66.395-6.957,87.973l-23.43,15.527C806.387,994.215,812.637,943.117,817.168,924.609z"/>
			<path style="fill:#F9F7E1;" d="M875.508,609.508c0,0-67.281,13.504-82.738,18.387c0,0-10.457,26,0,88.695
				c11.93,71.609,27.547,165.512,26.723,199.684c0,0,105.465,28.164,161.703-11.945c0,0,34.059-249.414,22.828-262.434
				c0,0-38.977-14.84-59.82-20.625C929.359,617.141,875.508,609.508,875.508,609.508z"/>
			<path style="fill:#DDD7B1;" d="M788.613,681.144c6.055-14.164,13.988-7.848,23.59,53.188
				c23.777,151.195,41.875-20.305,41.875-20.305s3.82,149.313,3.106,209.223c-22.234-2.852-37.691-6.977-37.691-6.977
				c0.824-34.172-14.793-128.074-26.723-199.684C790.527,703.113,789.238,691.332,788.613,681.144z"/>
			<path style="fill:#901924;" d="M816.023,868.844c0,0,32.402,12.895,34.234-141.375c-1.309-17.223-7.254-88.375-18.055-108.941
				l15.18-3.234c0,0,19.023,47.766,23.992,105.324c31.035-1.769,87.777-3.813,110.441,3.137c0,0,19.273,187.59,4.891,193.578
				c0,0-100.676,37.555-169.539,7.277C805.629,919.535,816.699,875.59,816.023,868.844z"/>
			<path style="opacity:0.7;fill:#6F0D1D;" d="M817.168,924.609c-11.539-5.074-0.469-49.02-1.145-55.766
				c0,0,32.402,12.895,34.234-141.375c-1.07-14.152-5.293-64.723-12.742-93.719c31.313,85.352,14.262,202.238,6.789,221.176
				c-6.965,17.645-2.008,64.781-0.43,78C834.652,931.055,825.66,928.352,817.168,924.609z"/>
			<path style="fill:#AF645A;" d="M875.508,524.918c0,0,8.398,63.098-3.539,87.512c0,0,13.02,21.578,41.773,32.488
				c0,0,11.305,17.426,17.316,30.984c6.012,13.559,11.398-27.664,11.398-27.664s4.648-15.84,4.922-19.098
				c0,0-9.762-17.527-7.754-50.555L875.508,524.918z"/>
			<path style="fill:#A2554E;" d="M939.363,585.656c-0.082,6.828,0.328,12.891,1.023,18.148
				c-12.613,0.363-40.152-3.508-62.078-28.629c0.453-19.004-1.426-38.359-2.34-46.391c0,0,0-0.008,0-0.02
				c-0.059-0.48-0.113-0.914-0.156-1.309c0-0.027,0-0.051,0-0.078c-0.023-0.231-0.063-0.449-0.086-0.652c0-0.02,0-0.043-0.004-0.07
				c-0.016-0.09-0.027-0.183-0.031-0.266c-0.008-0.066-0.016-0.125-0.02-0.184c-0.023-0.117-0.027-0.226-0.055-0.324
				c0-0.051-0.004-0.106-0.012-0.156c-0.012-0.047-0.012-0.102-0.012-0.152c-0.016-0.074-0.031-0.152-0.035-0.223
				c0-0.023-0.008-0.047-0.008-0.074c-0.012-0.055-0.016-0.098-0.016-0.137c0-0.023,0-0.047-0.008-0.063
				c-0.012-0.043-0.012-0.066-0.02-0.094c0-0.043,0-0.066,0-0.066l64.117,53.668C939.324,580.953,939.273,583.324,939.363,585.656z"
				/>
			<g>
				<path style="fill:#C37568;" d="M857.496,489.004c5.637-1.352,10.281,2.199,13.894,6.066c-1.219-19.07,0.481-39.191,9.129-54.418
					c22.711-39.926,110.938-28.336,107.024,56.215c0,0-4.859,55.875-33.824,96.582c0,0-15.297,4.234-27.039-0.457
					c0,0-36.227-20.098-45.613-42.809c0,0-0.969-4.465-3.902-17.191c-1.238,1.875-3.063,3.496-5.598,2.938
					c-5.391-1.184-17.617-15.769-20.785-28C850.781,507.93,847.637,491.367,857.496,489.004z"/>
				<path style="fill:#A2554E;" d="M855.598,506.273c0,0-0.531-11.488,4.297-10.77c4.856,0.719,10.426,5.391,11.859,13.648
					c0,0-4.375,2.895-3.031,6.328c1.605,4.094,3.695,5.32,5.191,5.34c0,0-0.805,6.758-2.625,6.769
					C868.121,527.598,858.289,520.262,855.598,506.273z"/>
				<g>
					<g>
						<path style="fill:#2E1C1D;" d="M932.715,491.516c0,0-0.527-0.191-1.305-0.363c-0.762-0.207-1.891-0.473-3.246-0.789
							c-0.645-0.246-1.422-0.254-2.184-0.402c-0.789-0.063-1.547-0.434-2.422-0.406c-0.848-0.133-1.727-0.27-2.613-0.41
							c-0.902-0.25-1.828-0.059-2.758-0.109c-0.945,0.023-1.887,0.047-2.816,0.066c-0.906,0.207-1.805,0.41-2.672,0.605
							c-0.883,0.191-1.734,0.379-2.547,0.551c-0.813,0.184-1.508,0.578-2.188,0.828c-2.742,1.133-4.57,1.887-4.57,1.887
							l-0.031,0.016c-0.109,0.043-0.227-0.008-0.273-0.113c-0.035-0.09,0-0.195,0.078-0.246c0,0,1.664-1.141,4.16-2.844
							c0.645-0.402,1.289-0.965,2.09-1.332c0.82-0.332,1.684-0.68,2.582-1.043c0.902-0.355,1.852-0.723,2.801-1.098
							c1.016-0.188,2.051-0.383,3.082-0.574c1.039-0.145,2.082-0.527,3.141-0.457c1.051,0.008,2.094,0.02,3.094,0.027
							c1.012,0.031,1.957,0.324,2.836,0.59c0.879,0.309,1.734,0.469,2.449,0.859c1.441,0.727,2.617,1.371,3.359,2.051
							c0.781,0.586,1.063,0.988,1.063,0.988l0.106,0.156c0.328,0.473,0.207,1.121-0.27,1.445
							C933.379,491.594,933.019,491.625,932.715,491.516z"/>
					</g>
				</g>
				<path style="fill:#2E100D;" d="M965.883,508.348c0,3.891,1.688,7.043,3.781,7.043c2.086,0,3.781-3.152,3.781-7.043
					c0-3.895-1.695-7.043-3.781-7.043C967.57,501.305,965.883,504.453,965.883,508.348z"/>
				<g>
					<path style="fill:#2E100D;" d="M964.48,503.961c0,0,0.234-0.965,0.957-2.289c0.691-1.305,2.121-3.039,4.34-3.652
						c1.074-0.336,2.242-0.344,3.258-0.117c1.008,0.293,1.793,0.824,2.402,1.32c0.625,0.48,0.988,1.031,1.262,1.398
						c0.266,0.367,0.387,0.602,0.387,0.602l-0.133,0.164c0,0-0.273-0.047-0.695-0.176c-0.445-0.086-0.961-0.395-1.644-0.551
						c-0.641-0.262-1.391-0.441-2.141-0.656c-0.734-0.223-1.535-0.438-2.363-0.348c-1.672,0.137-3.145,1.391-4.074,2.434
						c-0.93,1.074-1.359,1.949-1.359,1.949L964.48,503.961z"/>
				</g>
				<g>
					<path style="fill:#2E100D;" d="M920.426,508.152c0,3.895,1.703,7.051,3.793,7.051c2.086,0,3.785-3.156,3.785-7.051
						c0-3.891-1.699-7.047-3.785-7.047C922.129,501.105,920.426,504.262,920.426,508.152z"/>
					<g>
						<path style="fill:#2E100D;" d="M916.93,503.715c0,0,0.234-0.965,0.961-2.289c0.695-1.305,2.117-3.039,4.34-3.648
							c1.07-0.34,2.242-0.348,3.254-0.117c1.012,0.289,1.797,0.824,2.402,1.316c0.625,0.484,0.992,1.035,1.262,1.398
							c0.27,0.371,0.391,0.605,0.391,0.605l-0.137,0.16c0,0-0.273-0.047-0.691-0.176c-0.449-0.086-0.965-0.391-1.648-0.551
							c-0.644-0.258-1.387-0.438-2.133-0.652c-0.742-0.227-1.539-0.441-2.363-0.352c-1.676,0.141-3.152,1.395-4.078,2.434
							c-0.926,1.07-1.359,1.945-1.359,1.945L916.93,503.715z"/>
					</g>
				</g>
				<g>
					<g>
						<path style="fill:#A2554E;" d="M955.176,509.18c0.68,1.883,1.316,3.734,2.066,5.551c0.641,1.848,1.469,3.617,2.258,5.379
							c0.84,1.742,1.656,3.48,2.641,5.113c0.867,1.715,2.082,3.152,3.113,4.738l-0.227-0.219c1.297,1.066,2.277,2.305,2.805,4.004
							c0.168,0.398,0.148,0.887,0.207,1.32c0.074,0.449-0.137,0.898-0.207,1.332l-0.086,0.328c-0.043,0.117,0.043-0.043-0.117,0.305
							l-0.07,0.113l-0.285,0.438c-0.18,0.289-0.355,0.586-0.707,0.902c-1.246,1.309-2.484,1.871-3.863,2.43
							c-1.359,0.465-2.762,0.898-4.195,0.84c1.336-0.434,2.551-1.086,3.699-1.832c1.047-0.77,2.309-1.602,2.859-2.465
							c0.184-0.152,0.332-0.473,0.477-0.805l0.215-0.477l0.059-0.117c-0.121,0.27-0.031,0.02-0.059,0.051l0.008-0.188
							c-0.027-0.254,0.113-0.488,0-0.738c-0.078-0.242-0.039-0.484-0.176-0.727c-0.34-0.969-1.266-1.934-2.113-2.617l-0.176-0.144
							l-0.059-0.078c-1.18-1.668-2.547-3.254-3.395-5.113c-1.051-1.758-1.738-3.668-2.469-5.547
							c-0.598-1.93-1.141-3.863-1.531-5.824C955.461,513.172,955.215,511.172,955.176,509.18z"/>
					</g>
				</g>
				<g>
					<path style="fill:#A2554E;" d="M963.059,490.906c-0.023,0.043-0.672,0.523-1.59,1.555c-0.926,1.004-2.047,2.477-2.902,4.125
						c-0.398,0.832-0.883,1.648-1.106,2.5c-0.246,0.836-0.629,1.605-0.68,2.313c-0.234,1.41-0.391,2.355-0.391,2.355
						s-0.012-0.965-0.012-2.406c-0.063-0.742,0.176-1.563,0.285-2.477c0.078-0.93,0.43-1.844,0.699-2.801
						c0.605-1.883,1.535-3.668,2.352-4.941c0.789-1.277,1.551-2.105,1.508-2.07L963.059,490.906z"/>
				</g>
				<path style="fill:#901B23;" d="M962.969,548.102c0,0-20.93,4.438-40.84-2.867c0,0,4.551,19.258,24,18.422
					C961.313,563.012,962.969,548.102,962.969,548.102z"/>
				<path style="fill:#F37472;" d="M946.129,563.656c-11.32,0.481-17.586-5.836-20.859-11.207
					c16.555-1.82,20.977,8.078,21.926,11.125C946.852,563.606,946.504,563.641,946.129,563.656z"/>
				<g>
					<g>
						<path style="fill:#2E1C1D;" d="M985.254,491.918c0,0-1.305-1.129-3.602-2.094c-0.539-0.309-1.234-0.406-1.883-0.633
							c-0.684-0.172-1.336-0.512-2.117-0.535c-0.738-0.094-1.508-0.191-2.289-0.289c-0.758-0.129-1.578,0.098-2.356,0.125
							c-0.789,0.109-1.559,0.102-2.309,0.301c-0.742,0.242-1.473,0.477-2.176,0.707c-0.719,0.145-1.391,0.344-2.07,0.418
							c-0.648,0.23-1.258,0.453-1.816,0.656c-2.289,0.754-4.055,1.004-4.055,1.004l-0.184,0.027
							c-0.519,0.074-0.992-0.285-1.074-0.805c-0.043-0.32,0.094-0.629,0.301-0.832c0,0,1.324-1.199,3.664-2.613
							c0.598-0.324,1.227-0.711,1.934-1.059c0.742-0.258,1.578-0.402,2.414-0.613c0.848-0.129,1.734-0.262,2.633-0.395
							c0.895-0.051,1.848,0.117,2.758,0.172c0.914,0.117,1.836,0.043,2.703,0.324c0.859,0.262,1.707,0.512,2.523,0.758
							c0.824,0.191,1.539,0.645,2.211,1.008c0.66,0.406,1.34,0.664,1.844,1.121c2.176,1.555,3.211,2.977,3.211,2.977
							c0.066,0.082,0.055,0.199-0.019,0.27C985.43,491.973,985.32,491.969,985.254,491.918z"/>
					</g>
				</g>
				<path style="fill:#FFFFFF;" d="M923.019,547.934c-0.637-1.629-0.891-2.699-0.891-2.699c17.457,6.402,35.691,3.785,39.914,3.043
					c-0.184,2.223-0.809,5.477-2.777,6.18C956.277,555.516,939.644,559.18,923.019,547.934z"/>
				<path style="fill:#A2554E;" d="M950.742,568.191c0,0-4.828,2.484-14.09,0C936.652,568.191,944.09,577.199,950.742,568.191z"/>
			</g>
			<path style="fill:#901924;" d="M798.906,1420.723l14.582-384.297c0,0,35.094-47.734,85.98,17.977
				c0,0-38.918,247.195-43.063,366.32H798.906z"/>
			<path style="opacity:0.7;fill:#6F0D1D;" d="M813.488,1036.426c0,0,8.586-11.68,23.43-15.527
				c-4.453,118.734-16.125,309.066-13.934,324.078c1.992,13.68,22.566,15.793,36.859,15.582
				c-1.137,15.484-2.063,30.184-2.738,43.719l-57.566-19.242L813.488,1036.426z"/>
			<path style="fill:none;stroke:#901924;stroke-width:3.7975;stroke-miterlimit:10;" d="M806.875,1384.852
				c4.074-10.582,19.363-359.477,19.363-359.477s-3.797-43.5,5.965-99.492c0,0-8.941-29.41-7.328-53.012"/>
			<path style="fill:#901924;" d="M962.023,739.918c0,0,11.102-84.34,9.094-110.758l12.855,3.965c0,0,6.523,45.961-5.402,110.863
				c0,0-2.191,14.566-11.391,10.582C964.305,753.332,959.703,749.231,962.023,739.918z"/>
			<path style="fill:#F9F7E1;" d="M802.766,625.203c0,0-18.578,0-28.707,18.66c-6.68,12.305-38.977,103.672-51.273,129.145
				c0,0,18.438,29.836,52.074,29.836c0,0,32.848-56.637,50.375-76.156C825.234,726.688,835.988,657.176,802.766,625.203z"/>
			<path style="fill:#8B5435;" d="M863.461,1419.371c0,0-9.766,80.934-3.789,94.117c0,0,16.918,14.852,27.672,30.387
				c3.438,4.984,1.828,13.219,1.828,19.824c0,16.781-72.816,23.305-90.711-1.105c0,0-5.039-19.531-11.871-28.488
				c0,0,0-15.734,9.059-29.836c0,0,2.176-68.715-6.953-97.094L863.461,1419.371z"/>
			<path style="fill:#743F25;" d="M798.461,1562.594c0,0-5.039-19.531-11.871-28.488c0,0,0.004-4.34,1.32-10.508
				c5.324,0.688,17.516,28.141,17.516,28.141c21.492,20.098,68.348,14.379,75.945,11.961c7.391-2.344,6.84-17.488,6.809-18.313
				c2.305,5.031,0.992,12.34,0.992,18.313C889.172,1580.48,816.355,1587.004,798.461,1562.594z"/>
			<path style="fill:#723D23;" d="M862.109,1431.48c-9.27,4.27-31.332,11.332-68.203,5.652c-1.07-11.508-2.715-22.227-5.211-29.957
				l74.766,12.195C863.461,1419.371,862.902,1424.113,862.109,1431.48z"/>
			<path style="fill:#D47D5A;" d="M820.871,1413.406c0,0,0.828,87.063,0,94.664c-0.801,7.59,7.074,22.141,35,13.371
				c0,0,11.125-0.625-4.609-15.543c0,0-4.875-69.715-2.445-84.355C851.262,1406.898,820.871,1413.406,820.871,1413.406z"/>
			<path style="fill:#532815;" d="M857.769,1518.105c0,0-20.07,9.219-32.281-2.988c0,0-1.625-1.891-2.434-5.691
				c-0.82-3.805,5.957-88.16,2.707-92.23l19.262,1.902c0,0,1.629,86.258,4.887,89.785
				C853.152,1512.41,858.863,1515.391,857.769,1518.105z"/>
			<path style="fill:#AB6849;" d="M856.32,1375.395c0,0,15.5,0.867,13.816,9.82c-1.695,8.945-1.563,28.473,0,35.801
				c1.551,7.32-31.805,18.715-81.441,0c0,0-9.109-8.145-4.566-21.164c0,0-9.703-26.418,4.566-29.285
				C800.828,1368.125,831.996,1372.09,856.32,1375.395z"/>
			<path style="fill:#AB6849;" d="M889.402,1559.008c0,0,1.996,3.578,2.816,7.648c0.813,4.07-1.402,16.273-1.402,16.273
				s-15.281,25.645-75.359,9.496c-5.293-1.426-11.121-3.258-15.188-7.051c0,0-5.164-4.34-5.973-15.742
				c0,0-2.879-4.508-12.742-14.098c0,0-2.055-25.785,5.352-25.895c4.684-0.059,12.555,21.285,13.629,27.254
				c0.965,5.285,30.422,23.906,77.852,12.738C887.605,1567.473,886.254,1563.137,889.402,1559.008z"/>
			<path style="fill:#89D4E5;" d="M813.824,1440.328c0,2.73,1.277,4.945,2.856,4.945c1.582,0,2.844-2.215,2.844-4.945
				c0-2.742-1.262-4.957-2.844-4.957C815.102,1435.371,813.824,1437.586,813.824,1440.328z"/>
			<path style="fill:#172F34;" d="M815.016,1440.328c0,1.598,0.738,2.891,1.664,2.891c0.918,0,1.668-1.293,1.668-2.891
				c0-1.602-0.75-2.895-1.668-2.895C815.754,1437.434,815.016,1438.727,815.016,1440.328z"/>
			<path style="fill:#89D4E5;" d="M813.824,1456.875c0,2.727,1.277,4.941,2.856,4.941c1.582,0,2.844-2.215,2.844-4.941
				c0-2.742-1.262-4.949-2.844-4.949C815.102,1451.926,813.824,1454.133,813.824,1456.875z"/>
			<path style="fill:#172F34;" d="M815.016,1456.875c0,1.594,0.738,2.891,1.664,2.891c0.918,0,1.668-1.297,1.668-2.891
				c0-1.602-0.75-2.902-1.668-2.902C815.754,1453.973,815.016,1455.273,815.016,1456.875z"/>
			<path style="fill:#89D4E5;" d="M813.289,1475.109c0,2.734,1.266,4.957,2.848,4.957c1.555,0,2.852-2.223,2.852-4.957
				c0-2.73-1.297-4.949-2.852-4.949C814.555,1470.16,813.289,1472.379,813.289,1475.109z"/>
			<path style="fill:#172F34;" d="M814.469,1475.109c0,1.594,0.75,2.891,1.668,2.891c0.914,0,1.656-1.297,1.656-2.891
				c0-1.598-0.742-2.891-1.656-2.891C815.219,1472.219,814.469,1473.512,814.469,1475.109z"/>
			<path style="fill:#89D4E5;" d="M812.66,1495.18c0,2.742,1.27,4.953,2.832,4.953c1.578,0,2.855-2.211,2.855-4.953
				c0-2.73-1.277-4.949-2.855-4.949C813.93,1490.23,812.66,1492.449,812.66,1495.18z"/>
			<path style="fill:#172F34;" d="M813.824,1495.18c0,1.605,0.762,2.895,1.668,2.895c0.926,0,1.664-1.289,1.664-2.895
				c0-1.594-0.738-2.891-1.664-2.891C814.586,1492.289,813.824,1493.586,813.824,1495.18z"/>
			<path style="fill:#89D4E5;" d="M851.027,1493.75c0,2.746,0.922,4.957,2.047,4.957c1.141,0,2.051-2.211,2.051-4.957
				c0-2.723-0.91-4.945-2.051-4.945C851.949,1488.805,851.027,1491.027,851.027,1493.75z"/>
			<path style="fill:#172F34;" d="M851.875,1493.75c0,1.613,0.539,2.902,1.199,2.902c0.664,0,1.195-1.289,1.195-2.902
				c0-1.586-0.531-2.887-1.195-2.887C852.414,1490.863,851.875,1492.164,851.875,1493.75z"/>
			<path style="fill:#89D4E5;" d="M851.027,1475.109c0,2.734,0.922,4.957,2.047,4.957c1.141,0,2.051-2.223,2.051-4.957
				c0-2.73-0.91-4.949-2.051-4.949C851.949,1470.16,851.027,1472.379,851.027,1475.109z"/>
			<path style="fill:#172F34;" d="M851.875,1475.109c0,1.594,0.539,2.891,1.199,2.891c0.664,0,1.195-1.297,1.195-2.891
				c0-1.598-0.531-2.891-1.195-2.891C852.414,1472.219,851.875,1473.512,851.875,1475.109z"/>
			<path style="fill:#89D4E5;" d="M851.027,1457.887c0,2.73,0.922,4.953,2.047,4.953c1.141,0,2.051-2.223,2.051-4.953
				s-0.91-4.949-2.051-4.949C851.949,1452.938,851.027,1455.156,851.027,1457.887z"/>
			<path style="fill:#172F34;" d="M851.875,1457.887c0,1.598,0.539,2.895,1.199,2.895c0.664,0,1.195-1.297,1.195-2.895
				s-0.531-2.898-1.195-2.898C852.414,1454.988,851.875,1456.289,851.875,1457.887z"/>
			<path style="fill:#89D4E5;" d="M850.172,1439.168c0,2.734,0.922,4.957,2.055,4.957s2.043-2.223,2.043-4.957
				c0-2.73-0.91-4.953-2.043-4.953S850.172,1436.438,850.172,1439.168z"/>
			<path style="fill:#172F34;" d="M851.027,1439.168c0,1.602,0.539,2.902,1.199,2.902c0.664,0,1.199-1.301,1.199-2.902
				c0-1.59-0.535-2.891-1.199-2.891C851.566,1436.277,851.027,1437.578,851.027,1439.168z"/>
			
				<path style="fill:none;stroke:#855739;stroke-width:2.7125;stroke-linecap:round;stroke-linejoin:round;stroke-miterlimit:10;" d="
				M851.027,1439.609c0,0-27.57,14.273-33.234,17.086c0,0,31.453,17.711,34.434,18.84c0,0-13.438,15.328-35.547,19.645"/>
			
				<path style="fill:none;stroke:#855739;stroke-width:2.7125;stroke-linecap:round;stroke-linejoin:round;stroke-miterlimit:10;" d="
				M817.156,1440.328c0,0,26.758,14.121,34.719,17.559c0,0-30.418,16.723-34.719,17.492c0,0,29.148,16.465,35.918,18.371"/>
			<path style="opacity:0.6;fill:#99583C;" d="M781.555,1555.535c0,0-0.324-3.957-0.25-8.789c3.781,4.016,10.285,6.824,13.269,7.707
				c4.598,1.355,7.055,18.98,7.055,18.98c47.121,24.488,81.25,7.27,90.344,1.617c-0.457,4.074-1.156,7.879-1.156,7.879
				s-15.281,25.645-75.359,9.496c-5.293-1.426-11.121-3.258-15.188-7.051c0,0-5.164-4.34-5.973-15.742
				C794.297,1569.633,791.418,1565.125,781.555,1555.535z"/>
			<g>
				<path style="fill:#6B9BB1;" d="M974.051,747.535c-3.625,0-6.57-5.434-6.57-12.137c0-6.707,2.945-12.137,6.57-12.137h3.289h0.355
					l-0.355,24.273H974.051z"/>
				<path style="fill:#90BDD6;" d="M970.769,735.398c0,6.703,2.938,12.137,6.57,12.137c3.637,0,6.582-5.434,6.582-12.137
					c0-6.707-2.945-12.137-6.582-12.137C973.707,723.262,970.769,728.691,970.769,735.398z"/>
				<path style="fill:#74A3BA;" d="M973.676,735.398c0,4.867,1.801,8.809,4.019,8.809c2.219,0,4.004-3.941,4.004-8.809
					c0-4.867-1.785-8.816-4.004-8.816C975.477,726.582,973.676,730.531,973.676,735.398z"/>
				<path style="fill:#609DB2;" d="M979.902,735.398c0-4.188-1.332-7.68-3.105-8.578c0.285-0.148,0.582-0.238,0.898-0.238
					c2.219,0,4.004,3.949,4.004,8.816c0,4.867-1.785,8.809-4.004,8.809c-0.316,0-0.613-0.078-0.898-0.23
					C978.57,743.078,979.902,739.586,979.902,735.398z"/>
			</g>
			<g>
				<path style="fill:#6B9BB1;" d="M868.012,747.535c-3.633,0-6.574-5.434-6.574-12.137c0-6.707,2.941-12.137,6.574-12.137h3.285
					h0.348l-0.348,24.273H868.012z"/>
				<ellipse style="fill:#90BDD6;" cx="871.297" cy="735.398" rx="6.574" ry="12.137"/>
				<path style="fill:#74A3BA;" d="M867.625,735.398c0,4.867,1.801,8.809,4.019,8.809c2.227,0,4.012-3.941,4.012-8.809
					c0-4.867-1.785-8.816-4.012-8.816C869.426,726.582,867.625,730.531,867.625,735.398z"/>
				<path style="fill:#609DB2;" d="M873.859,735.398c0-4.188-1.332-7.68-3.121-8.578c0.305-0.148,0.598-0.238,0.906-0.238
					c2.227,0,4.012,3.949,4.012,8.816c0,4.867-1.785,8.809-4.012,8.809c-0.309,0-0.601-0.078-0.906-0.23
					C872.527,743.078,873.859,739.586,873.859,735.398z"/>
			</g>
			<path style="fill:#C03B47;" d="M961.402,744.207c0,0-35.539,3.328-79.309,0c0,0,0.363,23.742,3.258,30.973
				c2.891,7.231,14.965,31.469,39.051,31.469c29.305,0,34.363-28.211,34.363-28.211S962.004,763.965,961.402,744.207z"/>
			<path style="fill:#901924;" d="M822.672,867.695c1.246-0.711,2.613-1.75,4.047-3.27c-2,17.406,6.684,65.973,6.684,65.973
				l-1.871-0.547c-0.691-0.199-1.355-0.41-2.035-0.621C828.305,922.644,821.961,886.195,822.672,867.695z"/>
			<path style="fill:#F9F7E1;" d="M933.457,678.641c0,0-1.813,0-4.34,0c-2.531,0-21.039-26.066-27.156-24.977
				c-6.125,1.082-24.813,22.09-32.523,24.977c0,0-4.797-64.148-8-66.266c0,0-1.793-3.406,3.285-8.547
				c5.074-5.141,12.641-13.461,12.641-13.461s0.766,22.008,4.73,24.926c3.977,2.926,39.219,27.156,40.035,29.684
				C922.941,647.516,933.457,678.641,933.457,678.641z"/>
			<path style="fill:#F9F7E1;" d="M933.457,678.641c0,0,12.449-51.367,10.746-57.371c0,0-3.121-12.41-3.48-14.938
				c0,0,18.039,15.715,20.758,19.945c0,0,5.68,28.469,6,32.445c0.324,3.984-3.477,1.445-6.094,0.363
				c-2.621-1.09-4.008-3.98-6.211-2.531C952.992,657.996,942.129,682.578,933.457,678.641z"/>
			<path style="fill:#F9F7E1;" d="M725.813,766.356c0,0,14.715,24.027,52.769,30.18c0,0,5.641,3.031-2.711,12.535
				c0,0-7.941,7.969-10.027,20.555c-1.27,7.668-47.742-5.348-58.168-27.969c0,0-3.082-7.683,1.203-10
				c5.543-2.984,11.91-12.422,11.207-19.844C720.086,771.813,722.055,766.707,725.813,766.356z"/>
		</g>
		<path style="fill:#2E1C1D;" d="M987.105,480.586c0,0,3.535-17.352-4.777-42.469c-6.191-18.672-17.75-39.984-68.363-39.984
			c-31.527,0-69.074,23.871-56.469,90.871c0,0,8.547-3.293,16.418,9.707c0,0,7.504,7.195,8.953-1.844
			c1.449-9.039-4.457-41.23,25.066-45.746c29.547-4.52,40.777,8.496,57.949,0C965.883,451.121,979.223,451.645,987.105,480.586z"/>
		<path style="fill:#C37568;" d="M745.586,841.262c0,0-8.039,148.422-6.219,173.234c0,0-7.504,14.641-26.766,0
			c0,0-19.352-152.219-10.129-173.234C711.703,820.254,741.519,832.984,745.586,841.262z"/>
		<path style="fill:#1A070D;" d="M857.496,489.004c-8.207-43.629,4.855-68.961,23.66-81.332
			c-6.965,21.152-1.488,40.719,16.059,29.523c22.656-14.469,50.383-1.441,69.715,1.445c8.375,1.25,9.594-6.703,8.309-16.129
			c3.25,5.066,5.383,10.434,7.09,15.605c8.313,25.117,4.777,42.469,4.777,42.469c-7.883-28.941-21.223-29.465-21.223-29.465
			c-17.172,8.496-28.402-4.52-57.949,0c-29.523,4.516-23.617,36.707-25.066,45.746c-1.449,9.039-8.953,1.844-8.953,1.844
			C866.043,485.711,857.496,489.004,857.496,489.004z"/>
	</g>
	<g>
		<path style="fill:#95B3C1;" d="M668.91,1351.273c0,3.551,30.684,6.426,68.512,6.426c37.836,0,68.5-2.875,68.5-6.426
			l19.664-183.223H649.269L668.91,1351.273z"/>
		<path style="opacity:0.2;fill:#446774;" d="M805.922,1351.273c0,3.551-30.664,6.426-68.5,6.426
			c-37.828,0-68.512-2.875-68.512-6.426l-19.641-183.223h31.031c3.777,173.699,99.859,170.121,127.543,165.461L805.922,1351.273z"/>
		<path style="opacity:0.2;fill:#446774;" d="M664.609,1168.051c2.055,37.605,10.563,142.328,43.035,189.016
			c-22.918-1.043-38.734-3.246-38.734-5.793l-19.641-183.223H664.609z"/>
		<path style="fill:#648998;" d="M649.269,1168.051c0,7.609,39.457,13.785,88.152,13.785c48.691,0,88.164-6.176,88.164-13.785
			c0-7.609-39.473-13.781-88.164-13.781C688.727,1154.27,649.269,1160.441,649.269,1168.051z"/>
		<path style="fill:#5A8288;" d="M652.688,1168.051c0,6.25,37.934,11.313,84.734,11.313c46.793,0,84.734-5.063,84.734-11.313
			c0-6.254-37.941-11.316-84.734-11.316C690.621,1156.734,652.688,1161.797,652.688,1168.051z"/>
		<path style="opacity:0.6;fill:#446774;" d="M810.824,1173.707c-14.656,3.391-42.035,5.656-73.402,5.656s-58.75-2.266-73.395-5.656
			c14.645-3.387,42.027-5.656,73.395-5.656S796.168,1170.32,810.824,1173.707z"/>
	</g>
	<g>
		<path style="fill:#446774;" d="M735.48,1049.113c47.242,0,85.672,38.426,85.672,85.676v29.078c-1.348-0.828-2.879-1.383-4.5-1.59
			v-27.488c0-44.758-36.414-81.172-81.172-81.172c-44.754,0-81.168,36.414-81.168,81.172v56.351h-4.504v-56.351
			C649.809,1087.539,688.242,1049.113,735.48,1049.113z"/>
	</g>
	<path style="fill:#DCE1E3;" d="M641.57,1198.996c0,8.34,7.078,15.102,12.473,15.102c5.387,0,9.762-6.762,9.762-15.102
		c0-8.344-4.375-15.102-9.762-15.102C648.648,1183.895,641.57,1190.652,641.57,1198.996z"/>
	<g>
		<path style="fill:#446774;" d="M763.727,1053.902c33.406,11.703,57.426,43.539,57.426,80.887v29.078
			c-1.348-0.828-2.879-1.383-4.5-1.59v-27.488c0-35.254-22.59-65.309-54.031-76.5
			C763.211,1056.941,763.508,1055.504,763.727,1053.902z"/>
		<path style="fill:#C37568;" d="M703.195,1060.324c-0.852-1.23-1.457-2.641-1.758-4.148c-3.441,1.492-6.758,3.207-9.938,5.121
			c-0.012-1.875,0.289-3.98,1.211-6.063c2.656-5.949,6.797-10.762,6.797-10.762s2.309-0.199,2.848,2.355
			c0,0,5.918-17.555,10.258-25.82l-0.293-8.934l26.785-6.121c0,0,16.906,45.547,14.473,62.633c0,0-0.406,6.539-5.019,12.777
			c0,0-0.348,1.539-6.871-1.453c0,0-3.797-0.145-6.777,2.102c-2.996,2.254-6.785,1.004-9.77,0c0,0-11.383,3.871-14.91,0.07
			c0,0-6.008,2.184-10.723-0.535c0,0-4.086-7.867-6.797-13.832c0,0-0.242-0.586-0.516-1.543
			C695.691,1063.953,699.367,1061.992,703.195,1060.324z"/>
	</g>
</g>
<g>
	<path style="fill:#40010B;" d="M1214.387,594c0,0,7.105,78.434,2.469,103.856c-4.629,25.418,43.512,11.98,43.512,11.98
		l2.336-63.547L1214.387,594z"/>
	<path style="fill:#40010B;" d="M1320.863,573.184l-30.207,30.344l-21.008,72.141c0,0,52.277,14.125,63.34,11.644
		c11.055-2.477,12.859-21.461,12.859-21.461L1320.863,573.184z"/>
	<g>
		<path style="fill:#C16859;" d="M1196.602,1143.5c0.66-3.293-1.973-5.602-1.973-5.602l-15.914,12.613l15.578,45.109
			c0,0,3.289,0.227,2.641-5.484c-0.121-0.965-0.398-1.039-0.398-1.871c0,0,1.766-0.32,1.602-3.258
			c-0.078-1.555-0.383-2.266-0.383-2.266s1.445-0.402,1.445-2.594c0,0-0.352-3.453-1.938-5.977c0,0-1.566-6.699-2.223-8.211
			c0,0,0.824-3.176,0.953-4.906c0,0,1.762-9.633,2.855-10.371C1199.949,1149.941,1196.602,1143.5,1196.602,1143.5z"/>
		<path style="fill:#E4846C;" d="M1177.746,1109.641c0,0-3.535,42.855-3.086,50.32c0.434,7.453,11.844,34.238,19.305,39.5
			c0,0,4.066-1.977,0-12.285c0,0-8.379-22.387-7.91-24.586c0.449-2.191,4.844-19.758,7.035-20.629
			c2.195-0.875,5.004,6.133,6.148,11.703c2.047,9.976,1.879,15.504,5.066,15.223c1.953-0.172,0.254-23.398,0.254-23.398
			s-3.664-22.371-12.469-39.176L1177.746,1109.641z"/>
		<path style="fill:#E4846C;" d="M1163.117,875.914c0,0,8.988,77.398,8.434,94.285c-0.535,16.887-3.785,65.094,6.543,143.246
			l14.148,4.422c0,0,7.41-84.27,9.305-137.371c0,0,1.832-52.684,6.395-104.582H1163.117z"/>
		<path style="fill:#6DA1B4;" d="M1205.918,695.894c0,0-31.953,4.445-36.848,56.59c-4.91,52.152-8.684,114.176-10.309,121.801
			c0,0,7.695,29.141,50.941,15.25l4.684-46.297L1205.918,695.894z"/>
		<path style="fill:#A5BFE3;" d="M1159.238,865.676c0,0-4.832,0.984-5.383,7.52c-0.551,6.539,3.199,22.879,2.691,28.871
			s-2.824,11.98,2.691,13.07c5.512,1.09,36.703,10.894,48.613,0c11.918-10.898-1.914-33.773-1.914-33.773
			S1163.527,877.766,1159.238,865.676z"/>
		<path style="fill:#E4846C;" d="M1396.426,811.141c0,0,58.613,133.59,75.465,134.609c16.848,1.016,30.996-3.137,25.023-27.578
			c-8.781-35.945-55.559-147.883-55.559-147.883L1396.426,811.141z"/>
		<polygon style="fill:#A91D34;" points="1269.363,1440.113 1287.035,1106.738 1207.941,1050.582 1219.324,1440.113 		"/>
		<path style="opacity:0.7;fill:#A91D34;" d="M1250.902,1358.922c1.316,22.621-19.742,28.73-33.074,29.969l1.309,44.949l50.559-3.48
			l17.34-323.621l-35.586-25.27C1246.516,1154.75,1249.57,1336.074,1250.902,1358.922z"/>
		<g>
			<path style="fill:#8B5435;" d="M1272.902,1427.582c0,0-15.105,69.352-9.758,89.551c5.629,21.293-1.957,42.68-6.227,50.613
				c0,0-14.609,10.02-46.531,0c0,0-10.648-4.609-31.262,0c0,0-41.902,9.352-65.844,0c0,0-6.078-30.113,15.965-40.066
				c15.805-7.141,57.867-15.34,68.508-28.164c10.633-12.828,16.047-68.023,16.047-68.023L1272.902,1427.582z"/>
			<path style="fill:#723D23;" d="M1231.965,1430.281l-18.164,1.211c0,0-0.887,8.996-2.633,20.578
				c9.199,6.777,28.184,16.711,55.172,10.656c2.078-12.941,4.371-24.563,5.621-30.652L1231.965,1430.281z"/>
			<path style="fill:#743F25;" d="M1210.387,1567.746c31.922,10.02,46.531,0,46.531,0c2.57-4.805,6.367-14.531,7.723-26.18
				c-8.137,12.934-36.5,8.516-39.641,9.078c-3.848,0.676-15.391-1.609-26.719-3.527c-11.336-1.93-47.164,12.129-77.32,8.277
				c-4.586-0.59-6.41-4.352-7.027-8.68c-2.762,10.609-0.652,21.031-0.652,21.031c23.941,9.352,65.844,0,65.844,0
				C1199.738,1563.137,1210.387,1567.746,1210.387,1567.746z"/>
			<path style="fill:#D47D5A;" d="M1213.016,1438.547c-1.859,15.309-6.977,50.98-15.262,60.969
				c-5.355,6.441-18.648,11.723-32.543,16.281c-9.539,5.281-18.973,10.887-19.84,12.855c-1.816,4.082,50.473-6.195,59.84-13.148
				c9.371-6.945,30.82-67.391,30.82-67.391L1213.016,1438.547z"/>
			<path style="fill:#532815;" d="M1230.906,1444.488c0,0-19.352,58.121-25.695,65.25c-6.344,7.133-45.484,16.641-50.012,15.289
				c-4.535-1.359,36.566-13.746,43.512-23.641c9.824-13.984,15.996-59.84,15.996-59.84L1230.906,1444.488z"/>
			<path style="fill:#AB6849;" d="M1222.227,1405.215c0,0-12.703-0.086-11.777,7.301c0.922,7.391-0.195,23.313-1.848,29.207
				c-1.645,5.895,24.984,16.902,66.438,4.191c0,0,7.852-6.168,4.809-17.023c0,0,9.281-21.059-2.219-24.133
				C1267.855,1402.141,1242.234,1403.77,1222.227,1405.215z"/>
			<path style="fill:#AB6849;" d="M1112.52,1557.781c0,0-3.977,2.656-3.977,4.73s0,11.828,0,11.828s27.195,11.238,79.816,0
				c0,0,14.191-3.551,23.359-0.297c9.16,3.254,39.016,3.254,48.363-1.844c0,0,3.289-4.996,3.047-14.672l-1.109-4.02
				c0,0-27.516,5.852-48.219,2.008c0,0-16.27-4.023-26.023-1.277C1178.75,1556.781,1149.598,1565.766,1112.52,1557.781z"/>
			<path style="fill:#89D4E5;" d="M1238.801,1462.434c-0.449,2.449-2.043,4.215-3.566,3.941c-1.516-0.273-2.395-2.484-1.945-4.93
				c0.434-2.449,2.023-4.215,3.547-3.941C1238.359,1457.781,1239.227,1459.984,1238.801,1462.434z"/>
			<path style="fill:#172F34;" d="M1237.707,1462.238c-0.262,1.496-1.238,2.574-2.156,2.402c-0.926-0.172-1.469-1.512-1.195-3.004
				c0.273-1.496,1.242-2.566,2.168-2.398C1237.453,1459.402,1237.98,1460.75,1237.707,1462.238z"/>
			<path style="fill:#89D4E5;" d="M1233.645,1479.383c-0.434,2.445-2.031,4.211-3.547,3.938c-1.523-0.273-2.391-2.484-1.957-4.93
				c0.445-2.453,2.039-4.215,3.559-3.938C1233.215,1474.727,1234.094,1476.93,1233.645,1479.383z"/>
			<path style="fill:#172F34;" d="M1232.574,1479.184c-0.266,1.496-1.238,2.566-2.164,2.406c-0.926-0.164-1.461-1.516-1.188-3.004
				c0.27-1.496,1.234-2.563,2.16-2.406C1232.309,1476.352,1232.848,1477.699,1232.574,1479.184z"/>
			<path style="fill:#89D4E5;" d="M1227.316,1493.434c-0.449,2.445-2.031,4.215-3.563,3.938c-1.516-0.273-2.391-2.484-1.945-4.93
				c0.434-2.457,2.023-4.215,3.555-3.938C1226.887,1488.777,1227.75,1490.98,1227.316,1493.434z"/>
			<path style="fill:#172F34;" d="M1226.238,1493.238c-0.273,1.492-1.246,2.566-2.168,2.398c-0.926-0.164-1.457-1.512-1.191-3
				c0.27-1.492,1.246-2.566,2.168-2.402C1225.973,1490.406,1226.512,1491.75,1226.238,1493.238z"/>
			<path style="fill:#89D4E5;" d="M1219.797,1508.68c-0.594,2.418-2.297,4.074-3.789,3.703c-1.504-0.367-2.242-2.621-1.652-5.043
				c0.602-2.418,2.305-4.078,3.801-3.707C1219.656,1503.996,1220.398,1506.258,1219.797,1508.68z"/>
			<path style="fill:#172F34;" d="M1218.73,1508.422c-0.359,1.465-1.387,2.477-2.313,2.25c-0.906-0.219-1.352-1.598-0.996-3.074
				c0.363-1.473,1.395-2.48,2.313-2.254C1218.645,1505.566,1219.086,1506.945,1218.73,1508.422z"/>
			<path style="fill:#89D4E5;" d="M1205.352,1524.309c-2.172,1.219-4.543,1.102-5.301-0.242c-0.754-1.352,0.391-3.422,2.563-4.645
				c2.168-1.207,4.547-1.102,5.297,0.246C1208.672,1521.02,1207.52,1523.098,1205.352,1524.309z"/>
			<path style="fill:#172F34;" d="M1204.813,1523.359c-1.32,0.734-2.77,0.672-3.227-0.145c-0.457-0.824,0.238-2.086,1.563-2.832
				c1.328-0.734,2.77-0.676,3.223,0.145C1206.84,1521.352,1206.137,1522.617,1204.813,1523.359z"/>
			<path style="fill:#89D4E5;" d="M1185.086,1531.836c-2.402,0.633-4.672-0.059-5.074-1.547c-0.395-1.492,1.234-3.227,3.641-3.859
				c2.406-0.645,4.676,0.047,5.078,1.543C1189.117,1529.465,1187.492,1531.199,1185.086,1531.836z"/>
			<path style="fill:#172F34;" d="M1184.809,1530.773c-1.469,0.391-2.848-0.039-3.094-0.945c-0.242-0.906,0.754-1.957,2.215-2.348
				c1.465-0.391,2.855,0.035,3.094,0.945C1187.266,1529.332,1186.273,1530.387,1184.809,1530.773z"/>
			<path style="fill:#89D4E5;" d="M1163.59,1535.234c-2.406,0.625-4.68-0.059-5.078-1.551c-0.391-1.496,1.234-3.219,3.645-3.863
				c2.406-0.641,4.676,0.055,5.078,1.551C1167.629,1532.863,1165.996,1534.59,1163.59,1535.234z"/>
			<path style="fill:#172F34;" d="M1163.313,1534.164c-1.469,0.395-2.855-0.027-3.09-0.938c-0.242-0.914,0.738-1.961,2.211-2.348
				c1.469-0.391,2.855,0.039,3.094,0.945S1164.777,1533.777,1163.313,1534.164z"/>
			
				<path style="fill:none;stroke:#855739;stroke-width:2.2666;stroke-linecap:round;stroke-linejoin:round;stroke-miterlimit:10;" d="
				M1209.441,1457.48c5.891,2.563,25.992,4.461,25.992,4.461s-10,6.574-27.289,1.434"/>
			
				<path style="fill:none;stroke:#855739;stroke-width:2.2666;stroke-linecap:round;stroke-linejoin:round;stroke-miterlimit:10;" d="
				M1208.145,1466.398c3.699,6.516,22.762,12.488,22.762,12.488s-15.375-1.16-24.391-9.164"/>
			
				<path style="fill:none;stroke:#855739;stroke-width:2.2666;stroke-linecap:round;stroke-linejoin:round;stroke-miterlimit:10;" d="
				M1206.516,1471.227c0,0,7.48,17.426,18.047,21.711c0,0-17.23-1.129-22.375-4.469"/>
			
				<path style="fill:none;stroke:#855739;stroke-width:2.2666;stroke-linecap:round;stroke-linejoin:round;stroke-miterlimit:10;" d="
				M1201.441,1491.176c2.129,6.648,15.637,16.836,15.637,16.836s-13.707-2.035-18.828-9.141"/>
			
				<path style="fill:none;stroke:#855739;stroke-width:2.2666;stroke-linecap:round;stroke-linejoin:round;stroke-miterlimit:10;" d="
				M1196.754,1499.594c0,0,1.316,16.551,7.23,22.273c0,0-16.496-8.621-18.145-15.121c0,0-2.832,16.645-1.465,21.445
				c0,0-14.531-9.305-13.922-15.754c0,0-6.703,13.074-7.574,19.629c0,0-4.402-8.695-2.871-14.598"/>
		</g>
		<path style="fill:#A91D34;" d="M1369.02,965.426c0,0,32.938,70.676,11.801,134.766c0,0-55.832-22.25-86.344,18.059
			c0,0-10.641,3.191-24.973-16.418c-14.324-19.613-61.555-43.043-61.555-43.043l-0.098-109.777L1369.02,965.426z"/>
		<path style="opacity:0.7;fill:#A91D34;" d="M1369.02,965.426l-9.387-0.953l-7.742,23.269c0,0,20.398,41.277,4.281,106.844l0,0
			c12.012,1.242,21.277,4.363,23.898,5.324c0.004,0.004,0.02,0.012,0.023,0.016c0.094,0.023,0.168,0.055,0.23,0.078
			c0.02,0.008,0.039,0.016,0.055,0.02c0.059,0.023,0.109,0.043,0.16,0.063c0.027,0.008,0.039,0.016,0.059,0.023
			c0.039,0.02,0.074,0.031,0.074,0.031c0.043,0.012,0.047,0.012,0.063,0.02c0.059,0.02,0.086,0.031,0.086,0.031
			C1401.957,1036.102,1369.02,965.426,1369.02,965.426z"/>
		<path style="fill:#BCD4E2;" d="M1318.547,671.555c0,0,57.52,10.859,73.043,15.758c0,0,3.086,28.519-7.406,91.465
			c-11.984,71.902-23.621,73.766-30.164,197.957c0,0-85.121,31.105-141.578-9.164c0,0-36.59-133.688-37.078-169.617
			c-0.297-22.336,25.766-96.504,30.555-102.059c0,0,22.727-6.723,43.66-12.535C1264.496,679.215,1318.547,671.555,1318.547,671.555z
			"/>
		<path style="fill:#A91D34;" d="M1358.34,917.156c0,0-16.516,27.641-18.355-127.254c1.309-17.297,11.703-88.758,22.547-109.398
			l-15.75-3.141c0,0-23.012,47.859-28.008,105.66c-31.156-1.781-109.211-0.887-131.969,6.082c0,0-23.688,8.394,20.098,191.527
			c0,0,89.496,32.383,158.609,1.98C1377.109,977.516,1357.656,923.93,1358.34,917.156z"/>
		<path style="opacity:0.7;fill:#A91D34;" d="M1358.34,917.156c0,0-11.691,19.543-16.496-66.406
			c-2.27,44.043,8.109,122.84,10.047,136.992c2.293-0.73,4.57-1.516,6.82-2.363c0.031-0.004,0.043-0.016,0.063-0.02
			c1.117-0.422,2.219-0.855,3.328-1.301c0.02-0.012,0.055-0.019,0.078-0.035c1.117-0.453,2.238-0.926,3.332-1.41
			C1377.109,977.516,1357.656,923.93,1358.34,917.156z"/>
		<path style="fill:#E4846C;" d="M1318.547,586.625c0,0-8.43,63.356,3.555,87.863c0,0-13.07,21.66-41.938,32.617
			c0,0-11.352,17.496-17.391,31.113c-6.031,13.613-11.457-27.777-11.457-27.777s-4.656-15.898-4.93-19.172
			c0,0,13.98-18.109,14.016-55.969L1318.547,586.625z"/>
		<path style="fill:#CF6E5C;" d="M1256.953,665.82c13.777-0.441,38.637-5.66,58.781-28.738c-0.277-11.918,0.352-23.969,1.094-33.309
			c0-0.008,0-0.012,0.004-0.027c0.023-0.426,0.063-0.848,0.09-1.262c0.008-0.043,0.008-0.09,0.012-0.141
			c0.035-0.391,0.066-0.769,0.098-1.144c0.004-0.074,0.016-0.145,0.016-0.219c0.039-0.34,0.063-0.684,0.098-1.012
			c0.004-0.109,0.02-0.211,0.027-0.313c0.02-0.305,0.051-0.602,0.074-0.898c0.016-0.125,0.027-0.254,0.035-0.375
			c0.016-0.27,0.051-0.539,0.074-0.805c0.02-0.137,0.02-0.277,0.039-0.422c0.027-0.238,0.047-0.488,0.07-0.723
			c0.016-0.141,0.035-0.289,0.043-0.426c0.023-0.231,0.043-0.449,0.063-0.668c0.02-0.148,0.031-0.297,0.039-0.445
			c0.031-0.207,0.051-0.402,0.07-0.601c0.016-0.145,0.027-0.293,0.047-0.441c0.02-0.191,0.039-0.379,0.059-0.566
			c0.012-0.133,0.023-0.273,0.043-0.406c0.02-0.18,0.039-0.348,0.055-0.523c0.012-0.137,0.023-0.274,0.051-0.402
			c0.008-0.168,0.027-0.324,0.047-0.484c0.012-0.117,0.023-0.23,0.039-0.344c0.02-0.168,0.031-0.328,0.051-0.492
			c0.008-0.043,0.012-0.09,0.012-0.129c0-0.004,0-0.008,0.008-0.012c0.008-0.074,0.012-0.137,0.02-0.199
			c0.02-0.125,0.031-0.25,0.047-0.371c0.012-0.125,0.023-0.246,0.039-0.359c0.008-0.078,0.008-0.152,0.02-0.231
			c0.008-0.051,0.02-0.109,0.023-0.16c0-0.027,0-0.055,0.004-0.078c0-0.027,0.016-0.039,0.016-0.066
			c0.016-0.16,0.035-0.316,0.055-0.461c0.004-0.043,0.008-0.09,0.008-0.125c0.012-0.023,0.012-0.047,0.016-0.07
			c0-0.035,0-0.063,0.004-0.09c0.012-0.039,0.012-0.078,0.016-0.117c0.004-0.02,0.004-0.047,0.016-0.066
			c0.004-0.063,0.008-0.121,0.02-0.184c0.008-0.113,0.027-0.223,0.039-0.32c0.008-0.058,0.008-0.105,0.02-0.156
			c0-0.055,0.008-0.106,0.008-0.148c0.02-0.086,0.027-0.164,0.039-0.227c0-0.031,0.008-0.055,0.008-0.078
			c0.008-0.047,0.012-0.098,0.02-0.145c0-0.023,0.008-0.039,0.012-0.055c0-0.035,0-0.074,0-0.094c0-0.043,0.012-0.066,0.012-0.066
			l-58.145,48.676C1260.387,647.512,1258.922,657.656,1256.953,665.82z"/>
		<g>
			<path style="fill:#42010A;" d="M1208.223,558.453c0,0-23.465-46.551-7.395-53.008c16.066-6.469,15.809,10.394,15.809,10.394
				L1208.223,558.453z"/>
			<path style="fill:#F79D81;" d="M1336.633,550.566c-5.664-1.359-10.32,2.199-13.949,6.086c1.223-19.144-0.484-39.352-9.172-54.641
				c-22.801-40.086-109.215-28.445-105.289,56.441c0,0,0.555,54.328,35.34,94.246c0,0,7.914,4.355,19.699-0.367
				c0,0,39.742-18.238,49.707-40.332c0,0,0.965-4.5,3.91-17.269c1.25,1.879,3.09,3.508,5.633,2.945
				c5.41-1.184,17.691-15.832,20.859-28.105C1343.371,569.57,1346.531,552.941,1336.633,550.566z"/>
			<path style="fill:#F16485;" d="M1232.395,608.156c0,0,7.887-2.266,19.777-1.992c11.883,0.273,14.059-0.383,14.059-0.383
				S1245.836,615.598,1232.395,608.156z"/>
			<path style="fill:#F16485;" d="M1232.395,608.156c0,0-0.387,17.219,14.691,18.113c15.07,0.899,18.594-16.613,19.145-20.488
				C1266.23,605.781,1247.285,612.418,1232.395,608.156z"/>
			<path style="fill:#DA7C68;" d="M1338.543,567.906c0,0,0.539-11.535-4.328-10.816c-4.867,0.723-10.465,5.41-11.898,13.703
				c0,0,4.391,2.902,3.035,6.351c-1.613,4.117-3.703,5.348-5.199,5.367c0,0,0.789,6.781,2.633,6.789
				C1325.961,589.313,1335.836,581.945,1338.543,567.906z"/>
			<g>
				<g>
					<path style="fill:#5E0D0E;" d="M1254.754,551.672c0,0,0.34-0.344,1.117-0.875c0.742-0.605,1.914-1.176,3.348-1.832
						c0.703-0.363,1.551-0.496,2.406-0.777c0.871-0.231,1.785-0.535,2.773-0.559c0.977-0.031,1.992-0.063,3.023-0.094
						c1.027-0.106,2.059,0.246,3.082,0.355c1.016,0.16,2.035,0.324,3.039,0.484c0.953,0.344,1.891,0.684,2.793,1.012
						c0.895,0.332,1.758,0.652,2.582,0.957c0.797,0.336,1.461,0.867,2.113,1.242c2.551,1.609,4.254,2.68,4.254,2.68
						c0.059,0.039,0.082,0.121,0.039,0.18c-0.035,0.059-0.129,0.066-0.188,0.039c0,0-1.801-0.824-4.512-2.066
						c-0.68-0.277-1.363-0.703-2.176-0.922c-0.82-0.207-1.672-0.422-2.563-0.644c-0.879-0.227-1.785-0.457-2.703-0.695
						c-0.953-0.055-1.91-0.109-2.883-0.16c-0.945,0.012-1.898-0.215-2.828,0.004c-0.926,0.117-1.836,0.231-2.723,0.34
						c-0.895-0.016-1.691,0.34-2.508,0.441c-0.781,0.18-1.578,0.215-2.238,0.488c-1.371,0.387-2.512,0.731-3.281,1.016
						c-0.793,0.234-1.254,0.484-1.254,0.484c-0.324,0.168-0.715,0.051-0.887-0.266c-0.145-0.258-0.086-0.563,0.102-0.762
						L1254.754,551.672z"/>
				</g>
			</g>
			<path style="fill:#2E100D;" d="M1227.809,569.984c0,3.914-1.695,7.078-3.801,7.078c-2.094,0-3.801-3.164-3.801-7.078
				c0-3.906,1.707-7.07,3.801-7.07C1226.113,562.914,1227.809,566.078,1227.809,569.984z"/>
			<g>
				<path style="fill:#2E100D;" d="M1229.027,565.66c0,0-0.434-0.879-1.375-1.957c-0.926-1.043-2.406-2.301-4.086-2.441
					c-0.836-0.094-1.629,0.125-2.371,0.348c-0.75,0.215-1.5,0.391-2.141,0.656c-0.688,0.156-1.211,0.465-1.66,0.551
					c-0.418,0.129-0.691,0.176-0.691,0.176l-0.137-0.16c0,0,0.125-0.238,0.391-0.605c0.273-0.367,0.641-0.922,1.27-1.406
					c0.605-0.496,1.395-1.027,2.406-1.32c1.016-0.231,2.195-0.223,3.27,0.121c2.23,0.613,3.656,2.356,4.359,3.664
					c0.715,1.328,0.961,2.297,0.961,2.297L1229.027,565.66z"/>
			</g>
			<g>
				<path style="fill:#2E100D;" d="M1268.004,569.789c0,3.906-1.703,7.078-3.801,7.078c-2.105,0-3.801-3.172-3.801-7.078
					c0-3.902,1.695-7.074,3.801-7.074C1266.301,562.715,1268.004,565.887,1268.004,569.789z"/>
				<g>
					<path style="fill:#2E100D;" d="M1271.316,565.414c0,0-0.438-0.879-1.371-1.957c-0.926-1.043-2.406-2.301-4.09-2.441
						c-0.828-0.09-1.629,0.125-2.375,0.348c-0.75,0.215-1.5,0.395-2.145,0.656c-0.684,0.16-1.203,0.465-1.648,0.551
						c-0.43,0.129-0.703,0.176-0.703,0.176l-0.125-0.16c0,0,0.117-0.234,0.383-0.605c0.273-0.367,0.645-0.918,1.266-1.402
						c0.609-0.5,1.398-1.031,2.41-1.324c1.031-0.231,2.195-0.219,3.277,0.117c2.223,0.617,3.66,2.356,4.352,3.664
						c0.73,1.332,0.965,2.301,0.965,2.301L1271.316,565.414z"/>
				</g>
			</g>
			<g>
				<g>
					<path style="fill:#DB7F68;" d="M1235.875,576.238c0,0,0.621,1.691,0.098,4.266c-0.227,1.273-0.668,2.754-1.438,4.188
						c-0.754,1.449-1.805,2.832-2.977,4.09c-0.621,0.68-1.07,1.109-1.547,1.699c-0.461,0.555-0.824,1.148-0.996,1.641
						c-0.195,0.488-0.16,0.566,0.133,1.438c0.242,0.566,0.457,0.953,0.844,1.387c0.699,0.82,1.535,1.387,2.172,1.664
						c0.633,0.297,1.051,0.398,1.051,0.398s-0.406,0.121-1.168,0.082c-0.73-0.082-1.875-0.25-3.02-1.059
						c-0.547-0.367-1.156-1.047-1.586-1.707c-0.199-0.383-0.324-0.453-0.574-1.113c-0.207-0.602-0.145-1.16-0.059-1.672
						c0.246-0.984,0.688-1.785,1.184-2.523c0.453-0.727,1.16-1.465,1.625-2.004c0.484-0.609,0.949-1.227,1.469-1.789
						c0.484-0.59,0.828-1.246,1.293-1.813c0.48-0.559,0.707-1.219,1.121-1.758c0.406-0.547,0.621-1.133,0.914-1.652
						C1235.441,577.891,1235.875,576.238,1235.875,576.238z"/>
				</g>
			</g>
			<path style="fill:#7F141B;" d="M1232.395,608.156c0,0,17.332,3.676,33.836-2.375c0,0-3.773,15.953-19.891,15.262
				C1233.762,620.504,1232.395,608.156,1232.395,608.156z"/>
			<path style="fill:#F37472;" d="M1246.34,621.043c9.387,0.402,14.578-4.836,17.281-9.285c-13.707-1.512-17.379,6.691-18.168,9.219
				C1245.746,621.004,1246.035,621.027,1246.34,621.043z"/>
			<g>
				<g>
					<path style="fill:#5E0D0E;" d="M1208.113,553.269c0,0,1.055-1.469,3.211-3.086c2.098-1.691,5.555-3.23,9.297-3.496
						c1.863-0.156,3.742,0.012,5.461,0.398c1.688,0.496,3.16,1.18,4.328,1.91c1.219,0.66,2.051,1.457,2.648,1.977
						c0.586,0.531,0.926,0.832,0.926,0.832c0.27,0.246,0.289,0.66,0.047,0.926c-0.191,0.215-0.488,0.269-0.738,0.168l-0.078-0.031
						c0,0-0.398-0.168-1.094-0.465c-0.723-0.246-1.609-0.848-2.813-1.238c-1.129-0.547-2.508-0.953-3.957-1.441
						c-1.461-0.434-3.043-0.844-4.695-0.922c-3.293-0.16-6.586,0.91-8.824,2.16c-2.281,1.219-3.508,2.484-3.508,2.484
						c-0.055,0.051-0.141,0.051-0.191,0C1208.086,553.398,1208.086,553.32,1208.113,553.269z"/>
				</g>
			</g>
			<path style="fill:#FFFFFF;" d="M1265.488,608.012c0.527-1.344,0.742-2.231,0.742-2.231c-14.473,5.301-29.566,3.133-33.082,2.52
				c0.164,1.84,0.52,2.695,2.145,3.273C1237.766,612.457,1248.145,616.316,1265.488,608.012z"/>
			<path style="fill:#DB7F68;" d="M1240.387,628.066c0,0,4.844,2.492,14.145,0C1254.531,628.066,1247.066,637.106,1240.387,628.066z
				"/>
		</g>
		<path style="fill:#A91D34;" d="M1395.449,1452.953l-14.629-352.762c0,0-35.234-47.922-86.344,18.059
			c0,0,39.953,213.621,51.273,331.164L1395.449,1452.953z"/>
		<path style="opacity:0.7;fill:#A91D34;" d="M1380.797,1100.16c-0.516-0.691-9.066-11.813-23.5-15.555l0,0
			c4.461,119.223,16.188,277.223,13.988,292.297c-1.781,12.242-18.387,15.258-32.145,15.613c1.91,14.512,3.609,28.473,5.031,41.535
			l49.809-16.648l-13.16-317.211c0,0-0.008-0.012-0.02-0.027C1380.801,1100.164,1380.797,1100.164,1380.797,1100.16z"/>
		<path style="fill:#A91D34;" d="M1197.426,799.098c0,0,15.258-72.379,25.125-107.809l-6.602,2.039
			c0,0-14.086,35.738-33.984,106.211c0,0,1.043,18.266,10.277,14.273C1195.137,812.559,1199.754,808.453,1197.426,799.098z"/>
		<path style="fill:#BCD4E2;" d="M1391.59,687.313c0,0,18.645,0,28.813,18.738c6.707,12.355,39.141,104.09,51.488,129.668
			c0,0-18.527,29.957-52.289,29.957c0,0-32.973-56.867-50.582-76.48C1369.02,789.195,1358.23,719.414,1391.59,687.313z"/>
		<path style="fill:#8B5435;" d="M1333.699,1445.938c0,0,8.691,72.02,3.375,83.75c0,0-15.051,13.219-24.613,27.035
			c-3.074,4.434-1.641,11.766-1.641,17.648c0,14.922,64.789,20.738,80.719-0.984c0,0,4.484-17.391,10.57-25.355
			c0,0,0-13.992-8.074-26.543c0,0-1.93-61.156,6.195-86.402L1333.699,1445.938z"/>
		<path style="fill:#743F25;" d="M1391.539,1573.387c0,0,4.484-17.391,10.57-25.355c0,0,0-3.863-1.168-9.344
			c-4.75,0.609-15.59,25.031-15.59,25.031c-19.129,17.891-60.824,12.797-67.582,10.652c-6.574-2.09-6.094-15.57-6.059-16.305
			c-2.051,4.484-0.891,10.984-0.891,16.305C1310.82,1589.293,1375.609,1595.109,1391.539,1573.387z"/>
		<path style="fill:#723D23;" d="M1334.898,1456.711c8.262,3.797,27.887,10.094,60.699,5.035c0.961-10.242,2.422-19.785,4.633-26.66
			l-66.531,10.852C1333.699,1445.938,1334.203,1450.16,1334.898,1456.711z"/>
		<path style="fill:#D47D5A;" d="M1371.594,1440.621c0,0-0.715,77.484,0,84.238c0.723,6.762-6.277,19.703-31.137,11.902
			c0,0-9.895-0.551,4.102-13.832c0,0,4.34-62.031,2.168-75.066C1344.559,1434.828,1371.594,1440.621,1371.594,1440.621z"/>
		<path style="fill:#532815;" d="M1338.766,1533.789c0,0,17.852,8.211,28.727-2.648c0,0,1.441-1.691,2.172-5.07
			c0.727-3.383-5.309-78.449-2.41-82.066l-17.141,1.688c0,0-1.449,76.758-4.348,79.891
			C1342.871,1528.73,1337.805,1531.379,1338.766,1533.789z"/>
		<path style="fill:#AB6849;" d="M1340.051,1406.809c0,0-13.797,0.762-12.285,8.73c1.508,7.961,1.383,25.336,0,31.859
			c-1.395,6.516,28.301,16.652,72.465,0c0,0,8.109-7.246,4.055-18.832c0,0,8.633-23.5-4.055-26.055
			C1389.434,1400.328,1361.703,1403.867,1340.051,1406.809z"/>
		<path style="fill:#AB6849;" d="M1310.613,1570.195c0,0-1.777,3.18-2.504,6.805c-0.719,3.617,1.258,14.477,1.258,14.477
			s13.594,22.816,67.051,8.453c4.715-1.266,9.898-2.895,13.52-6.277c0,0,4.586-3.863,5.309-13.996c0,0,2.559-4.023,11.348-12.559
			c0,0,1.816-22.938-4.773-23.035c-4.16-0.066-11.156,18.93-12.125,24.246c-0.855,4.707-27.066,21.273-69.273,11.348
			C1312.211,1577.723,1313.43,1573.863,1310.613,1570.195z"/>
		<path style="fill:#89D4E5;" d="M1377.867,1464.582c0,2.426-1.137,4.406-2.535,4.406c-1.395,0-2.531-1.98-2.531-4.406
			c0-2.438,1.137-4.402,2.531-4.402C1376.73,1460.18,1377.867,1462.145,1377.867,1464.582z"/>
		<path style="fill:#172F34;" d="M1376.816,1464.582c0,1.418-0.664,2.574-1.484,2.574c-0.809,0-1.473-1.156-1.473-2.574
			c0-1.426,0.664-2.582,1.473-2.582C1376.152,1462,1376.816,1463.156,1376.816,1464.582z"/>
		<path style="fill:#89D4E5;" d="M1377.867,1479.305c0,2.434-1.137,4.406-2.535,4.406c-1.395,0-2.531-1.973-2.531-4.406
			c0-2.43,1.137-4.402,2.531-4.402C1376.73,1474.902,1377.867,1476.875,1377.867,1479.305z"/>
		<path style="fill:#172F34;" d="M1376.816,1479.305c0,1.418-0.664,2.574-1.484,2.574c-0.809,0-1.473-1.156-1.473-2.574
			c0-1.422,0.664-2.582,1.473-2.582C1376.152,1476.723,1376.816,1477.883,1376.816,1479.305z"/>
		<path style="fill:#89D4E5;" d="M1378.348,1495.539c0,2.434-1.133,4.406-2.531,4.406c-1.406,0-2.527-1.973-2.527-4.406
			s1.121-4.414,2.527-4.414C1377.215,1491.125,1378.348,1493.105,1378.348,1495.539z"/>
		<path style="fill:#172F34;" d="M1377.305,1495.539c0,1.418-0.668,2.574-1.488,2.574s-1.477-1.156-1.477-2.574
			c0-1.426,0.656-2.582,1.477-2.582S1377.305,1494.113,1377.305,1495.539z"/>
		<path style="fill:#89D4E5;" d="M1378.922,1513.391c0,2.438-1.141,4.414-2.535,4.414c-1.402,0-2.527-1.977-2.527-4.414
			c0-2.426,1.125-4.398,2.527-4.398C1377.781,1508.992,1378.922,1510.965,1378.922,1513.391z"/>
		<path style="fill:#172F34;" d="M1377.867,1513.391c0,1.434-0.66,2.582-1.48,2.582c-0.816,0-1.477-1.148-1.477-2.582
			c0-1.414,0.66-2.566,1.477-2.566C1377.207,1510.824,1377.867,1511.977,1377.867,1513.391z"/>
		<path style="fill:#89D4E5;" d="M1344.77,1512.129c0,2.43-0.813,4.41-1.824,4.41c-1.004,0-1.828-1.98-1.828-4.41
			s0.824-4.41,1.828-4.41C1343.957,1507.719,1344.77,1509.699,1344.77,1512.129z"/>
		<path style="fill:#172F34;" d="M1344.016,1512.129c0,1.418-0.48,2.578-1.07,2.578s-1.07-1.16-1.07-2.578
			c0-1.422,0.48-2.57,1.07-2.57S1344.016,1510.707,1344.016,1512.129z"/>
		<path style="fill:#89D4E5;" d="M1344.77,1495.539c0,2.434-0.813,4.406-1.824,4.406c-1.004,0-1.828-1.973-1.828-4.406
			s0.824-4.414,1.828-4.414C1343.957,1491.125,1344.77,1493.105,1344.77,1495.539z"/>
		<path style="fill:#172F34;" d="M1344.016,1495.539c0,1.418-0.48,2.574-1.07,2.574s-1.07-1.156-1.07-2.574
			c0-1.426,0.48-2.582,1.07-2.582S1344.016,1494.113,1344.016,1495.539z"/>
		<path style="fill:#89D4E5;" d="M1344.77,1480.211c0,2.438-0.813,4.406-1.824,4.406c-1.004,0-1.828-1.969-1.828-4.406
			c0-2.434,0.824-4.402,1.828-4.402C1343.957,1475.809,1344.77,1477.777,1344.77,1480.211z"/>
		<path style="fill:#172F34;" d="M1344.016,1480.211c0,1.426-0.48,2.574-1.07,2.574s-1.07-1.148-1.07-2.574
			c0-1.422,0.48-2.57,1.07-2.57S1344.016,1478.789,1344.016,1480.211z"/>
		<path style="fill:#89D4E5;" d="M1345.527,1463.559c0,2.426-0.824,4.398-1.82,4.398c-1.016,0-1.832-1.973-1.832-4.398
			c0-2.441,0.816-4.41,1.832-4.41C1344.703,1459.148,1345.527,1461.117,1345.527,1463.559z"/>
		<path style="fill:#172F34;" d="M1344.77,1463.559c0,1.422-0.48,2.574-1.063,2.574c-0.59,0-1.07-1.152-1.07-2.574
			c0-1.426,0.48-2.582,1.07-2.582C1344.289,1460.977,1344.77,1462.133,1344.77,1463.559z"/>
		
			<path style="fill:none;stroke:#855739;stroke-width:2.4137;stroke-linecap:round;stroke-linejoin:round;stroke-miterlimit:10;" d="
			M1344.77,1463.949c0,0,24.539,12.707,29.57,15.199c0,0-27.984,15.758-30.633,16.766c0,0,11.949,13.645,31.625,17.477"/>
		
			<path style="fill:none;stroke:#855739;stroke-width:2.4137;stroke-linecap:round;stroke-linejoin:round;stroke-miterlimit:10;" d="
			M1374.91,1464.582c0,0-23.82,12.57-30.895,15.629c0,0,27.063,14.879,30.895,15.566c0,0-25.934,14.641-31.965,16.352"/>
		<path style="opacity:0.6;fill:#99583C;" d="M1406.594,1567.098c0,0,0.273-3.52,0.219-7.813c-3.355,3.566-9.152,6.066-11.797,6.852
			c-4.113,1.207-6.293,16.895-6.293,16.895c-41.918,21.793-72.301,6.469-80.395,1.445c0.426,3.613,1.039,7,1.039,7
			s13.594,22.816,67.051,8.453c4.715-1.266,9.898-2.895,13.52-6.277c0,0,4.586-3.863,5.309-13.996
			C1395.246,1579.656,1397.805,1575.633,1406.594,1567.098z"/>
		<g>
			<path style="fill:#6B9BB1;" d="M1195.066,813.481c3.645,0,6.609-5.457,6.609-12.188c0-6.731-2.965-12.188-6.609-12.188h-3.293
				h-0.344l0.344,24.375H1195.066z"/>
			<path style="fill:#90BDD6;" d="M1198.379,801.293c0,6.73-2.957,12.188-6.605,12.188c-3.645,0-6.598-5.457-6.598-12.188
				c0-6.731,2.953-12.188,6.598-12.188C1195.422,789.106,1198.379,794.563,1198.379,801.293z"/>
			<path style="fill:#74A3BA;" d="M1195.457,801.293c0,4.887-1.801,8.844-4.027,8.844c-2.234,0-4.035-3.957-4.035-8.844
				c0-4.887,1.801-8.848,4.035-8.848C1193.656,792.445,1195.457,796.406,1195.457,801.293z"/>
			<path style="fill:#609DB2;" d="M1189.211,801.293c0-4.203,1.332-7.715,3.117-8.617c-0.293-0.148-0.594-0.23-0.898-0.23
				c-2.234,0-4.035,3.961-4.035,8.848c0,4.887,1.801,8.844,4.035,8.844c0.305,0,0.605-0.086,0.898-0.231
				C1190.543,809.004,1189.211,805.496,1189.211,801.293z"/>
		</g>
		<g>
			<path style="fill:#6B9BB1;" d="M1326.078,810.141c3.645,0,6.602-5.457,6.602-12.188c0-6.73-2.957-12.191-6.602-12.191h-3.293
				h-0.355l0.355,24.379H1326.078z"/>
			<path style="fill:#90BDD6;" d="M1329.383,797.953c0,6.73-2.969,12.188-6.598,12.188c-3.66,0-6.617-5.457-6.617-12.188
				c0-6.73,2.957-12.191,6.617-12.191C1326.414,785.762,1329.383,791.223,1329.383,797.953z"/>
			<path style="fill:#74A3BA;" d="M1326.449,797.953c0,4.887-1.793,8.848-4.02,8.848s-4.035-3.961-4.035-8.848
				c0-4.887,1.809-8.848,4.035-8.848S1326.449,793.066,1326.449,797.953z"/>
			<path style="fill:#609DB2;" d="M1320.211,797.953c0-4.207,1.328-7.715,3.121-8.617c-0.293-0.148-0.59-0.23-0.902-0.23
				c-2.227,0-4.035,3.961-4.035,8.848c0,4.887,1.809,8.848,4.035,8.848c0.313,0,0.609-0.09,0.902-0.234
				C1321.539,805.664,1320.211,802.156,1320.211,797.953z"/>
		</g>
		<path style="fill:#C4415A;" d="M1214.762,814.5c0,0,35.691,3.34,79.625,0c0,0-0.367,23.84-3.266,31.098
			c-2.91,7.266-15.02,31.594-39.215,31.594c-29.418,0-34.5-28.32-34.5-28.32S1214.156,834.34,1214.762,814.5z"/>
		<path style="fill:#FFFFFF;" d="M1260.367,740.965c0,0,1.809,0,4.355,0c2.551,0,21.117-26.172,27.266-25.078
			c6.148,1.086,24.922,22.18,32.656,25.078c0,0,4.816-64.414,8.035-66.527c0,0,1.797-3.426-3.297-8.586
			c-5.105-5.164-12.691-13.52-12.691-13.52s-0.766,22.102-4.762,25.031c-3.988,2.938-39.367,27.266-40.18,29.809
			C1270.922,709.715,1260.367,740.965,1260.367,740.965z"/>
		<path style="fill:#FFFFFF;" d="M1260.367,740.965c0,0-12.395-49.125-10.684-55.168c0,0,5.426-8.434,7.27-19.977
			c0,0-21.992,18.328-24.723,22.578c0,0-5.699,28.578-6.031,32.57c-0.332,3.992,3.488,1.457,6.121,0.363
			c2.625-1.094,4.027-3.992,6.23-2.539C1240.758,720.238,1251.652,744.918,1260.367,740.965z"/>
		<path style="fill:#A5BFE3;" d="M1468.852,829.035c0,0-14.773,24.121-52.977,30.308c0,0-5.676,3.039,2.703,12.578
			c0,0,7.984,8,10.078,20.645c1.27,7.691,47.926-5.371,58.406-28.082c0,0,3.09-7.719-1.219-10.039
			c-5.559-2.996-11.949-12.477-11.25-19.934C1474.594,834.512,1472.621,829.391,1468.852,829.035z"/>
		<polygon style="fill:#9D523E;" points="1450.152,1614.98 1431.355,1614.98 1428.559,634.094 1447.363,634.094 		"/>
		<polygon style="fill:#833A2C;" points="1437.965,634.094 1440.758,1614.98 1450.152,1614.98 1447.363,634.094 		"/>
		<path style="fill:#15222B;" d="M1448.535,691.816c0,0.297-0.246,0.547-0.547,0.547h-21.789c-0.293,0-0.539-0.25-0.539-0.547
			V626.09c0-0.301,0.246-0.547,0.539-0.547h21.789c0.301,0,0.547,0.246,0.547,0.547V691.816z"/>
		<path style="fill:#F79D81;" d="M1447.363,750.621c0,0,2.293,194.719,15.066,196.356c0,0,9.836,16.777,26.406,11.25
			c16.594-5.531,17.641-38.953,14.957-61.09c-5.484-45.145-35.605-151.402-35.605-151.402L1447.363,750.621z"/>
		<path style="fill:#F79D81;" d="M1467.895,752.012c0,0,0.977-49.066-3.41-50.645c-4.168-1.504-24.754-10.461-28.797-9.559
			c-4.051,0.898-19.613,16.652-19.613,16.652s-2.094,3.672,6.371,0.617c4.656-1.676,11.891-7.711,11.891-7.711
			s-13.953,13.277-15.082,14.402c-1.121,1.125-1.348,2.586-0.332,3.039c1.012,0.445,5.285-0.563,6.754-1.469
			c3.535-2.168,3.02-2.188,8.426-6.629c0,0-7.418,9.285-8.543,10.828c-1.121,1.547-0.449,2.332,0.453,2.441
			c0.895,0.117,2.922-0.109,5.625-1.797c2.699-1.684,3.82-3.602,3.82-3.602s-4.391,7.309-4.727,7.988
			c-0.332,0.676-0.559,2.699,1.238,2.699c1.801,0,3.602-1.574,5.289-3.379c1.699-1.793,4.051-4.723,4.617-4.949l1.801,0.598
			c0,0,4.156,7.848,5.621,10.324c0,0-5.066,19.223,0.738,23.172C1450.035,755.035,1463.977,756.301,1467.895,752.012z"/>
		<rect x="1373.602" y="614.043" style="fill:#15222B;" width="126.984" height="18.043"/>
		<polygon style="fill:#15222B;" points="1385.352,619.793 1373.602,619.793 1377.449,462.238 1381.492,462.238 		"/>
		<polygon style="fill:#15222B;" points="1500.586,617.59 1488.836,617.59 1492.695,460.031 1496.738,460.031 		"/>
		<polygon style="fill:#15222B;" points="1464.211,616.277 1452.465,616.277 1456.309,458.727 1460.367,458.727 		"/>
		<polygon style="fill:#15222B;" points="1421.605,617.59 1409.863,617.59 1413.707,460.031 1417.762,460.031 		"/>
	</g>
	<path style="fill:#5E0D0E;" d="M1372.289,682.484c0,0-11.941-39.359-18.078-68.441c-13.762-65.117-4.785-126.742-33.773-129.313
		c2.934-20-34.129-30.559-50.789-27.848c-19.059,3.098-21.559,7.375-59.238,27.816c-37.688,20.434-1.379,54.113-1.379,54.113
		c13.84-14.973,23.289-29.063,64.418-30.461c-1.676,6.484,18.539,40.359,49.234,48.301c9.293,2.414-4.16,20.031-5.477,42.598
		c-1.125,19.316-2.402,33.602-0.516,53.082c0,0,17.992,14.762,15.988,22.106L1372.289,682.484z"/>
	<path style="fill:#40010B;" d="M1328.25,663.914c4.922-33.137,4.43-77.289,4.43-77.289l-13.57-0.004
		c-0.926,3.973-1.656,8.207-1.902,12.629c-1.125,19.316-2.402,33.602-0.516,53.082
		C1316.691,652.332,1323.477,657.914,1328.25,663.914z"/>
	<path style="fill:#F79D81;" d="M1316.879,594.731c1.25,1.879,3.09,3.508,5.633,2.945c5.41-1.184,17.691-15.832,20.859-28.105
		c0,0,3.16-16.629-6.738-19.004c-5.664-1.359-10.32,2.199-13.949,6.086"/>
	<path style="fill:#DA7C68;" d="M1338.543,567.906c0,0,0.539-11.535-4.328-10.816c-4.867,0.723-10.465,5.41-11.898,13.703
		c0,0,4.391,2.902,3.035,6.351c-1.613,4.117-3.703,5.348-5.199,5.367c0,0,0.789,6.781,2.633,6.789
		C1325.961,589.313,1335.836,581.945,1338.543,567.906z"/>
	<path style="fill:#7E302D;" d="M1342.664,523.219c-0.887-6.332-1.93-12.059-3.301-17.055c-21.422,0.094-69.027-2.789-120.59-26.055
		c-2.59,1.43-5.363,2.957-8.363,4.59c-2.316,1.25-4.34,2.551-6.125,3.895c7.336,8.016,18.094,18.363,31.539,27.317
		c8.754-4.164,20.414-6.973,37.625-7.559c-0.934,3.613,4.93,15.727,15.617,27.125
		C1305.609,536.703,1323.652,533.504,1342.664,523.219z"/>
</g>
</svg>
