<svg width="33" height="32" viewBox="0 0 33 32" fill="none" xmlns="http://www.w3.org/2000/svg">
<path d="M12.793 19.5C13.6214 19.5 14.293 18.8284 14.293 18C14.293 17.1716 13.6214 16.5 12.793 16.5C11.9645 16.5 11.293 17.1716 11.293 18C11.293 18.8284 11.9645 19.5 12.793 19.5Z" fill="#858584"/>
<path d="M20.793 19.5C21.6214 19.5 22.293 18.8284 22.293 18C22.293 17.1716 21.6214 16.5 20.793 16.5C19.9645 16.5 19.293 17.1716 19.293 18C19.293 18.8284 19.9645 19.5 20.793 19.5Z" fill="#858584"/>
<path fill-rule="evenodd" clip-rule="evenodd" d="M16.7856 9.99959C14.6178 9.98356 12.4608 10.3055 10.3921 10.9539C9.8651 11.119 9.30398 10.8257 9.13881 10.2987C8.97364 9.77168 9.26697 9.21056 9.79397 9.04539C12.0586 8.33563 14.4199 7.98281 16.793 7.99959C19.1662 7.98281 21.5275 8.33563 23.7921 9.04539C24.3191 9.21056 24.6124 9.77168 24.4473 10.2987C24.2821 10.8257 23.721 11.119 23.194 10.9539C21.1253 10.3055 18.9683 9.98356 16.8004 9.99959H16.7856Z" fill="#858584"/>
<path fill-rule="evenodd" clip-rule="evenodd" d="M9.13881 21.7007C9.30398 21.1737 9.8651 20.8804 10.3921 21.0455C12.4608 21.6939 14.6178 22.0158 16.7856 21.9998H16.8004C18.9683 22.0158 21.1253 21.6939 23.194 21.0455C23.721 20.8804 24.2821 21.1737 24.4473 21.7007C24.6124 22.2277 24.3191 22.7888 23.7921 22.954C21.5275 23.6638 19.1662 24.0166 16.793 23.9998C14.4199 24.0166 12.0586 23.6638 9.79397 22.954C9.26697 22.7888 8.97364 22.2277 9.13881 21.7007Z" fill="#858584"/>
<path fill-rule="evenodd" clip-rule="evenodd" d="M21.0129 4.81121C21.4434 4.56852 21.948 4.49267 22.4308 4.59812C23.7483 4.88366 25.0383 5.28424 26.2858 5.79524C26.5666 5.90352 26.8188 6.07496 27.0229 6.29638C27.2291 6.52018 27.3805 6.78885 27.465 7.08115L31.7008 21.2255C31.8113 21.594 31.8138 21.9865 31.7082 22.3563C31.6025 22.7262 31.393 23.0581 31.1045 23.3126L31.0994 23.3171C29.0319 25.1161 26.2305 26.4777 23.0486 27.2577C22.6066 27.3703 22.1392 27.3265 21.7257 27.1336C21.3139 26.9414 20.9811 26.6132 20.7833 26.2044L19.275 23.2129C19.0264 22.7197 19.2246 22.1184 19.7178 21.8698C20.2109 21.6211 20.8122 21.8194 21.0609 22.3125L22.5734 25.3125L22.5745 25.3147C25.5124 24.5943 28.0065 23.3571 29.7865 21.8083L30.4429 22.5627L29.7814 21.8128C29.7832 21.8113 29.7845 21.8092 29.7851 21.8069C29.7858 21.8046 29.7858 21.8022 29.7851 21.7999L25.549 7.65465C25.5455 7.65325 25.5419 7.65182 25.5384 7.65037C24.3955 7.18149 23.2135 6.81412 22.0062 6.55253L22.004 6.55205C22.001 6.55139 21.9979 6.55186 21.9952 6.55337C21.9928 6.55473 21.9909 6.55684 21.9898 6.55937L21.0049 9.53905C20.8316 10.0634 20.266 10.348 19.7416 10.1747C19.2172 10.0013 18.9326 9.43574 19.106 8.91136L20.0963 5.91516C20.2558 5.44707 20.5821 5.0541 21.0129 4.81121Z" fill="#858584"/>
<path fill-rule="evenodd" clip-rule="evenodd" d="M11.5907 6.55337C11.588 6.55186 11.5849 6.55139 11.5819 6.55205L11.5797 6.55252C10.3724 6.81412 9.1904 7.18148 8.0475 7.65037C8.04397 7.65182 8.04043 7.65324 8.03689 7.65465L3.8009 21.7996C3.80022 21.8019 3.80012 21.8046 3.80077 21.8069C3.80136 21.809 3.80248 21.8108 3.804 21.8123C5.58369 23.3593 8.07608 24.5949 11.0114 25.3147L11.0125 25.3125L12.525 22.3125C12.7736 21.8194 13.375 21.6211 13.8681 21.8698C14.3613 22.1184 14.5595 22.7197 14.3109 23.2129L12.8026 26.2045C12.6047 26.6132 12.272 26.9414 11.8602 27.1336C11.4467 27.3265 10.9793 27.3703 10.5373 27.2577C7.35535 26.4777 4.55399 25.1161 2.48652 23.3171L2.48134 23.3126C2.19287 23.0581 1.98341 22.7262 1.87773 22.3563C1.77207 21.9865 1.77459 21.5942 1.88497 21.2258C1.88494 21.2259 1.885 21.2257 1.88497 21.2258L6.12087 7.08117C6.20539 6.78887 6.35674 6.52019 6.56299 6.29638C6.76705 6.07496 7.01927 5.90352 7.30008 5.79524C8.54794 5.28409 9.83825 4.88344 11.1562 4.59788C11.6386 4.49279 12.1428 4.5687 12.573 4.81121C13.0037 5.05409 13.33 5.44708 13.4895 5.91518L13.4925 5.92385L14.4799 8.91136C14.6532 9.43574 14.3687 10.0013 13.8443 10.1747C13.3199 10.348 12.7543 10.0634 12.581 9.53905L11.596 6.55937C11.595 6.55684 11.5931 6.55473 11.5907 6.55337Z" fill="#858584"/>
<path d="M12.793 19.5C13.6214 19.5 14.293 18.8284 14.293 18C14.293 17.1716 13.6214 16.5 12.793 16.5C11.9645 16.5 11.293 17.1716 11.293 18C11.293 18.8284 11.9645 19.5 12.793 19.5Z" fill="#858584"/>
<path d="M20.793 19.5C21.6214 19.5 22.293 18.8284 22.293 18C22.293 17.1716 21.6214 16.5 20.793 16.5C19.9645 16.5 19.293 17.1716 19.293 18C19.293 18.8284 19.9645 19.5 20.793 19.5Z" fill="#858584"/>
<path fill-rule="evenodd" clip-rule="evenodd" d="M16.7856 9.99959C14.6178 9.98356 12.4608 10.3055 10.3921 10.9539C9.8651 11.119 9.30398 10.8257 9.13881 10.2987C8.97364 9.77168 9.26697 9.21056 9.79397 9.04539C12.0586 8.33563 14.4199 7.98281 16.793 7.99959C19.1662 7.98281 21.5275 8.33563 23.7921 9.04539C24.3191 9.21056 24.6124 9.77168 24.4473 10.2987C24.2821 10.8257 23.721 11.119 23.194 10.9539C21.1253 10.3055 18.9683 9.98356 16.8004 9.99959H16.7856Z" fill="#858584"/>
<path fill-rule="evenodd" clip-rule="evenodd" d="M9.13881 21.7007C9.30398 21.1737 9.8651 20.8804 10.3921 21.0455C12.4608 21.6939 14.6178 22.0158 16.7856 21.9998H16.8004C18.9683 22.0158 21.1253 21.6939 23.194 21.0455C23.721 20.8804 24.2821 21.1737 24.4473 21.7007C24.6124 22.2277 24.3191 22.7888 23.7921 22.954C21.5275 23.6638 19.1662 24.0166 16.793 23.9998C14.4199 24.0166 12.0586 23.6638 9.79397 22.954C9.26697 22.7888 8.97364 22.2277 9.13881 21.7007Z" fill="#858584"/>
<path fill-rule="evenodd" clip-rule="evenodd" d="M21.0129 4.81121C21.4434 4.56852 21.948 4.49267 22.4308 4.59812C23.7483 4.88366 25.0383 5.28424 26.2858 5.79524C26.5666 5.90352 26.8188 6.07496 27.0229 6.29638C27.2291 6.52018 27.3805 6.78885 27.465 7.08115L31.7008 21.2255C31.8113 21.594 31.8138 21.9865 31.7082 22.3563C31.6025 22.7262 31.393 23.0581 31.1045 23.3126L31.0994 23.3171C29.0319 25.1161 26.2305 26.4777 23.0486 27.2577C22.6066 27.3703 22.1392 27.3265 21.7257 27.1336C21.3139 26.9414 20.9811 26.6132 20.7833 26.2044L19.275 23.2129C19.0264 22.7197 19.2246 22.1184 19.7178 21.8698C20.2109 21.6211 20.8122 21.8194 21.0609 22.3125L22.5734 25.3125L22.5745 25.3147C25.5124 24.5943 28.0065 23.3571 29.7865 21.8083L30.4429 22.5627L29.7814 21.8128C29.7832 21.8113 29.7845 21.8092 29.7851 21.8069C29.7858 21.8046 29.7858 21.8022 29.7851 21.7999L25.549 7.65465C25.5455 7.65325 25.5419 7.65182 25.5384 7.65037C24.3955 7.18149 23.2135 6.81412 22.0062 6.55253L22.004 6.55205C22.001 6.55139 21.9979 6.55186 21.9952 6.55337C21.9928 6.55473 21.9909 6.55684 21.9898 6.55937L21.0049 9.53905C20.8316 10.0634 20.266 10.348 19.7416 10.1747C19.2172 10.0013 18.9326 9.43574 19.106 8.91136L20.0963 5.91516C20.2558 5.44707 20.5821 5.0541 21.0129 4.81121Z" fill="#858584"/>
<path fill-rule="evenodd" clip-rule="evenodd" d="M11.5907 6.55337C11.588 6.55186 11.5849 6.55139 11.5819 6.55205L11.5797 6.55252C10.3724 6.81412 9.1904 7.18148 8.0475 7.65037C8.04397 7.65182 8.04043 7.65324 8.03689 7.65465L3.8009 21.7996C3.80022 21.8019 3.80012 21.8046 3.80077 21.8069C3.80136 21.809 3.80248 21.8108 3.804 21.8123C5.58369 23.3593 8.07608 24.5949 11.0114 25.3147L11.0125 25.3125L12.525 22.3125C12.7736 21.8194 13.375 21.6211 13.8681 21.8698C14.3613 22.1184 14.5595 22.7197 14.3109 23.2129L12.8026 26.2045C12.6047 26.6132 12.272 26.9414 11.8602 27.1336C11.4467 27.3265 10.9793 27.3703 10.5373 27.2577C7.35535 26.4777 4.55399 25.1161 2.48652 23.3171L2.48134 23.3126C2.19287 23.0581 1.98341 22.7262 1.87773 22.3563C1.77207 21.9865 1.77459 21.5942 1.88497 21.2258C1.88494 21.2259 1.885 21.2257 1.88497 21.2258L6.12087 7.08117C6.20539 6.78887 6.35674 6.52019 6.56299 6.29638C6.76705 6.07496 7.01927 5.90352 7.30008 5.79524C8.54794 5.28409 9.83825 4.88344 11.1562 4.59788C11.6386 4.49279 12.1428 4.5687 12.573 4.81121C13.0037 5.05409 13.33 5.44708 13.4895 5.91518L13.4925 5.92385L14.4799 8.91136C14.6532 9.43574 14.3687 10.0013 13.8443 10.1747C13.3199 10.348 12.7543 10.0634 12.581 9.53905L11.596 6.55937C11.595 6.55684 11.5931 6.55473 11.5907 6.55337Z" fill="#858584"/>
</svg>
